<?xml version="1.0" encoding="utf-8"?>
<!-- Generator: Adobe Illustrator 25.2.3, SVG Export Plug-In . SVG Version: 6.00 Build 0)  -->
<svg version="1.1" id="Layer_1" xmlns="http://www.w3.org/2000/svg" xmlns:xlink="http://www.w3.org/1999/xlink" x="0px" y="0px"
	 viewBox="0 0 1000 1000" style="enable-background:new 0 0 1000 1000;" xml:space="preserve">
<style type="text/css">
	.st0{display:none;}
	.st1{display:inline;}
	.st2{fill:#1D1D1B;}
	.st3{fill:#630826;}
	.st4{fill:#BA7E36;}
	.st5{fill:url(#);}
</style>
<g class="st0">
	<g class="st1">
		<rect x="57.1" y="402.77" class="st2" width="851.66" height="0.75"/>
	</g>
	<g class="st1">
		<rect x="57.1" y="443.76" class="st2" width="851.66" height="0.75"/>
	</g>
	<g class="st1">
		<rect x="57.1" y="423.26" class="st2" width="851.66" height="0.75"/>
	</g>
	<g class="st1">
		<rect x="57.1" y="566.74" class="st2" width="851.66" height="0.75"/>
	</g>
	<g class="st1">
		<rect x="57.1" y="546.25" class="st2" width="851.66" height="0.75"/>
	</g>
	<g class="st1">
		<rect x="57.1" y="525.75" class="st2" width="851.66" height="0.75"/>
	</g>
	<g class="st1">
		<rect x="57.1" y="505.25" class="st2" width="851.66" height="0.75"/>
	</g>
	<g class="st1">
		<rect x="57.1" y="484.75" class="st2" width="851.66" height="0.75"/>
	</g>
	<g class="st1">
		<rect x="57.1" y="464.26" class="st2" width="851.66" height="0.75"/>
	</g>
</g>
<g class="st0">
	<g class="st1">
		<rect x="334.22" y="28.8" class="st2" width="0.75" height="851.66"/>
	</g>
	<g class="st1">
		<rect x="293.23" y="28.8" class="st2" width="0.75" height="851.66"/>
	</g>
	<g class="st1">
		<rect x="313.72" y="28.8" class="st2" width="0.75" height="851.66"/>
	</g>
	<g class="st1">
		<rect x="170.24" y="28.8" class="st2" width="0.75" height="851.66"/>
	</g>
	<g class="st1">
		<rect x="190.74" y="28.8" class="st2" width="0.75" height="851.66"/>
	</g>
	<g class="st1">
		<rect x="211.24" y="28.8" class="st2" width="0.75" height="851.66"/>
	</g>
	<g class="st1">
		<rect x="231.73" y="28.8" class="st2" width="0.75" height="851.66"/>
	</g>
	<g class="st1">
		<rect x="252.23" y="28.8" class="st2" width="0.75" height="851.66"/>
	</g>
	<g class="st1">
		<rect x="272.73" y="28.8" class="st2" width="0.75" height="851.66"/>
	</g>
</g>
<g class="st0">
	<g class="st1">
		<rect x="498.35" y="28.8" class="st2" width="0.75" height="851.66"/>
	</g>
	<g class="st1">
		<rect x="457.36" y="28.8" class="st2" width="0.75" height="851.66"/>
	</g>
	<g class="st1">
		<rect x="477.85" y="28.8" class="st2" width="0.75" height="851.66"/>
	</g>
	<g class="st1">
		<rect x="334.37" y="28.8" class="st2" width="0.75" height="851.66"/>
	</g>
	<g class="st1">
		<rect x="354.87" y="28.8" class="st2" width="0.75" height="851.66"/>
	</g>
	<g class="st1">
		<rect x="375.37" y="28.8" class="st2" width="0.75" height="851.66"/>
	</g>
	<g class="st1">
		<rect x="395.86" y="28.8" class="st2" width="0.75" height="851.66"/>
	</g>
	<g class="st1">
		<rect x="416.36" y="28.8" class="st2" width="0.75" height="851.66"/>
	</g>
	<g class="st1">
		<rect x="436.86" y="28.8" class="st2" width="0.75" height="851.66"/>
	</g>
</g>
<g class="st0">
	<g class="st1">
		<path class="st2" d="M1000.12,1000.12H-0.12V-0.12h1000.25V1000.12z M0.12,999.88h999.75V0.12H0.12V999.88z"/>
	</g>
	<g class="st1">
		<rect y="980.27" class="st2" width="1000" height="0.25"/>
	</g>
	<g class="st1">
		<rect y="960.66" class="st2" width="1000" height="0.25"/>
	</g>
	<g class="st1">
		<rect y="941.05" class="st2" width="1000" height="0.25"/>
	</g>
	<g class="st1">
		<rect y="921.44" class="st2" width="1000" height="0.25"/>
	</g>
	<g class="st1">
		<rect y="901.84" class="st2" width="1000" height="0.25"/>
	</g>
	<g class="st1">
		<rect y="882.23" class="st2" width="1000" height="0.25"/>
	</g>
	<g class="st1">
		<rect y="862.62" class="st2" width="1000" height="0.25"/>
	</g>
	<g class="st1">
		<rect y="843.01" class="st2" width="1000" height="0.25"/>
	</g>
	<g class="st1">
		<rect y="823.4" class="st2" width="1000" height="0.25"/>
	</g>
	<g class="st1">
		<rect y="803.8" class="st2" width="1000" height="0.25"/>
	</g>
	<g class="st1">
		<rect y="784.19" class="st2" width="1000" height="0.25"/>
	</g>
	<g class="st1">
		<rect y="764.58" class="st2" width="1000" height="0.25"/>
	</g>
	<g class="st1">
		<rect y="744.97" class="st2" width="1000" height="0.25"/>
	</g>
	<g class="st1">
		<rect y="725.37" class="st2" width="1000" height="0.25"/>
	</g>
	<g class="st1">
		<rect y="705.76" class="st2" width="1000" height="0.25"/>
	</g>
	<g class="st1">
		<rect y="686.15" class="st2" width="1000" height="0.25"/>
	</g>
	<g class="st1">
		<rect y="666.54" class="st2" width="1000" height="0.25"/>
	</g>
	<g class="st1">
		<rect y="646.93" class="st2" width="1000" height="0.25"/>
	</g>
	<g class="st1">
		<rect y="627.33" class="st2" width="1000" height="0.25"/>
	</g>
	<g class="st1">
		<rect y="607.72" class="st2" width="1000" height="0.25"/>
	</g>
	<g class="st1">
		<rect y="588.11" class="st2" width="1000" height="0.25"/>
	</g>
	<g class="st1">
		<rect y="568.5" class="st2" width="1000" height="0.25"/>
	</g>
	<g class="st1">
		<rect y="548.89" class="st2" width="1000" height="0.25"/>
	</g>
	<g class="st1">
		<rect y="529.29" class="st2" width="1000" height="0.25"/>
	</g>
	<g class="st1">
		<rect y="509.68" class="st2" width="1000" height="0.25"/>
	</g>
	<g class="st1">
		<rect y="490.07" class="st2" width="1000" height="0.25"/>
	</g>
	<g class="st1">
		<rect y="470.46" class="st2" width="1000" height="0.25"/>
	</g>
	<g class="st1">
		<rect y="450.86" class="st2" width="1000" height="0.25"/>
	</g>
	<g class="st1">
		<rect y="431.25" class="st2" width="1000" height="0.25"/>
	</g>
	<g class="st1">
		<rect y="411.64" class="st2" width="1000" height="0.25"/>
	</g>
	<g class="st1">
		<rect y="392.03" class="st2" width="1000" height="0.25"/>
	</g>
	<g class="st1">
		<rect y="372.42" class="st2" width="1000" height="0.25"/>
	</g>
	<g class="st1">
		<rect y="352.82" class="st2" width="1000" height="0.25"/>
	</g>
	<g class="st1">
		<rect y="333.21" class="st2" width="1000" height="0.25"/>
	</g>
	<g class="st1">
		<rect y="313.6" class="st2" width="1000" height="0.25"/>
	</g>
	<g class="st1">
		<rect y="293.99" class="st2" width="1000" height="0.25"/>
	</g>
	<g class="st1">
		<rect y="274.38" class="st2" width="1000" height="0.25"/>
	</g>
	<g class="st1">
		<rect y="254.78" class="st2" width="1000" height="0.25"/>
	</g>
	<g class="st1">
		<rect y="235.17" class="st2" width="1000" height="0.25"/>
	</g>
	<g class="st1">
		<rect y="215.56" class="st2" width="1000" height="0.25"/>
	</g>
	<g class="st1">
		<rect y="195.95" class="st2" width="1000" height="0.25"/>
	</g>
	<g class="st1">
		<rect y="176.35" class="st2" width="1000" height="0.25"/>
	</g>
	<g class="st1">
		<rect y="156.74" class="st2" width="1000" height="0.25"/>
	</g>
	<g class="st1">
		<rect y="137.13" class="st2" width="1000" height="0.25"/>
	</g>
	<g class="st1">
		<rect y="117.52" class="st2" width="1000" height="0.25"/>
	</g>
	<g class="st1">
		<rect y="97.91" class="st2" width="1000" height="0.25"/>
	</g>
	<g class="st1">
		<rect y="78.31" class="st2" width="1000" height="0.25"/>
	</g>
	<g class="st1">
		<rect y="58.7" class="st2" width="1000" height="0.25"/>
	</g>
	<g class="st1">
		<rect y="39.09" class="st2" width="1000" height="0.25"/>
	</g>
	<g class="st1">
		<rect y="19.48" class="st2" width="1000" height="0.25"/>
	</g>
	<g class="st1">
		<rect x="980.27" class="st2" width="0.25" height="1000"/>
	</g>
	<g class="st1">
		<rect x="960.66" class="st2" width="0.25" height="1000"/>
	</g>
	<g class="st1">
		<rect x="941.05" class="st2" width="0.25" height="1000"/>
	</g>
	<g class="st1">
		<rect x="921.44" class="st2" width="0.25" height="1000"/>
	</g>
	<g class="st1">
		<rect x="901.84" class="st2" width="0.25" height="1000"/>
	</g>
	<g class="st1">
		<rect x="882.23" class="st2" width="0.25" height="1000"/>
	</g>
	<g class="st1">
		<rect x="862.62" class="st2" width="0.25" height="1000"/>
	</g>
	<g class="st1">
		<rect x="843.01" class="st2" width="0.25" height="1000"/>
	</g>
	<g class="st1">
		<rect x="823.4" class="st2" width="0.25" height="1000"/>
	</g>
	<g class="st1">
		<rect x="803.8" class="st2" width="0.25" height="1000"/>
	</g>
	<g class="st1">
		<rect x="784.19" class="st2" width="0.25" height="1000"/>
	</g>
	<g class="st1">
		<rect x="764.58" class="st2" width="0.25" height="1000"/>
	</g>
	<g class="st1">
		<rect x="744.97" class="st2" width="0.25" height="1000"/>
	</g>
	<g class="st1">
		<rect x="725.37" class="st2" width="0.25" height="1000"/>
	</g>
	<g class="st1">
		<rect x="705.76" class="st2" width="0.25" height="1000"/>
	</g>
	<g class="st1">
		<rect x="686.15" class="st2" width="0.25" height="1000"/>
	</g>
	<g class="st1">
		<rect x="666.54" class="st2" width="0.25" height="1000"/>
	</g>
	<g class="st1">
		<rect x="646.93" class="st2" width="0.25" height="1000"/>
	</g>
	<g class="st1">
		<rect x="627.33" class="st2" width="0.25" height="1000"/>
	</g>
	<g class="st1">
		<rect x="607.72" class="st2" width="0.25" height="1000"/>
	</g>
	<g class="st1">
		<rect x="588.11" class="st2" width="0.25" height="1000"/>
	</g>
	<g class="st1">
		<rect x="568.5" class="st2" width="0.25" height="1000"/>
	</g>
	<g class="st1">
		<rect x="548.89" class="st2" width="0.25" height="1000"/>
	</g>
	<g class="st1">
		<rect x="529.29" class="st2" width="0.25" height="1000"/>
	</g>
	<g class="st1">
		<rect x="509.68" class="st2" width="0.25" height="1000"/>
	</g>
	<g class="st1">
		<rect x="490.07" class="st2" width="0.25" height="1000"/>
	</g>
	<g class="st1">
		<rect x="470.46" class="st2" width="0.25" height="1000"/>
	</g>
	<g class="st1">
		<rect x="450.86" class="st2" width="0.25" height="1000"/>
	</g>
	<g class="st1">
		<rect x="431.25" class="st2" width="0.25" height="1000"/>
	</g>
	<g class="st1">
		<rect x="411.64" class="st2" width="0.25" height="1000"/>
	</g>
	<g class="st1">
		<rect x="392.03" class="st2" width="0.25" height="1000"/>
	</g>
	<g class="st1">
		<rect x="372.42" class="st2" width="0.25" height="1000"/>
	</g>
	<g class="st1">
		<rect x="352.82" class="st2" width="0.25" height="1000"/>
	</g>
	<g class="st1">
		<rect x="333.21" class="st2" width="0.25" height="1000"/>
	</g>
	<g class="st1">
		<rect x="313.6" class="st2" width="0.25" height="1000"/>
	</g>
	<g class="st1">
		<rect x="293.99" class="st2" width="0.25" height="1000"/>
	</g>
	<g class="st1">
		<rect x="274.38" class="st2" width="0.25" height="1000"/>
	</g>
	<g class="st1">
		<rect x="254.78" class="st2" width="0.25" height="1000"/>
	</g>
	<g class="st1">
		<rect x="235.17" class="st2" width="0.25" height="1000"/>
	</g>
	<g class="st1">
		<rect x="215.56" class="st2" width="0.25" height="1000"/>
	</g>
	<g class="st1">
		<rect x="195.95" class="st2" width="0.25" height="1000"/>
	</g>
	<g class="st1">
		<rect x="176.35" class="st2" width="0.25" height="1000"/>
	</g>
	<g class="st1">
		<rect x="156.74" class="st2" width="0.25" height="1000"/>
	</g>
	<g class="st1">
		<rect x="137.13" class="st2" width="0.25" height="1000"/>
	</g>
	<g class="st1">
		<rect x="117.52" class="st2" width="0.25" height="1000"/>
	</g>
	<g class="st1">
		<rect x="97.91" class="st2" width="0.25" height="1000"/>
	</g>
	<g class="st1">
		<rect x="78.31" class="st2" width="0.25" height="1000"/>
	</g>
	<g class="st1">
		<rect x="58.7" class="st2" width="0.25" height="1000"/>
	</g>
	<g class="st1">
		<rect x="39.09" class="st2" width="0.25" height="1000"/>
	</g>
	<g class="st1">
		<rect x="19.48" class="st2" width="0.25" height="1000"/>
	</g>
</g>
<g>
	<g>
		<g>
			<g>
				<g>
					<g>
						<path class="st3" d="M457.37,383.46c5.6,0.59,10.95,1.19,16.29,1.79L457.37,383.46z"/>
						<polygon class="st4" points="487.68,372.25 514.65,372.21 507.83,384.27 500.99,396.39 494.26,384.21 						"/>
						<path class="st3" d="M477.09,385.62l7.81,0.86l-0.55-0.03C481.91,386.18,479.49,385.9,477.09,385.62z"/>
						<path class="st3" d="M456.57,395.81l-1.25-4.35l-2.45-8.49l2.07,0.22l2.43,0.26l16.29,1.79l2.91,0.32l0.52,0.05
							c2.4,0.28,4.82,0.55,7.26,0.83l0.55,0.03l1.57,0.17l0.21,0.39l4.61,8.08l9.71,17.04l9.66-17.06l4.59-8.09l0.21-0.39l1.57-0.18
							l0.55-0.03c2.44-0.28,4.86-0.57,7.26-0.85l0.52-0.05l2.91-0.32l16.29-1.84l2.43-0.27l2.07-0.23l-2.43,8.5l-1.23,4.35
							c-0.73,2.26,0.03,4.52,2.32,6.03l26.44,21.92l16.84,13.96l-9.03,4.57c-3.76,1.53-3,3.79-1.47,9.07l6.98,24.87l-24.91-5.14
							c-1.77,0.02-3.83,0.62-4.4,2.49c-1.24,3.99-2.5,7.97-3.77,11.93l-0.04-0.05l-0.01,0.03l-22.83-24.65l-10.49-11.31l-19.97,0.15
							l-19.97-0.09l-10.46,11.34l-22.77,24.71l-0.01-0.03l-0.04,0.05c-1.29-3.96-2.56-7.93-3.8-11.92
							c-0.58-1.87-2.63-2.46-4.41-2.48l-24.9,5.21l6.92-24.89c1.51-5.28,2.27-7.55-1.49-9.07l-9.04-4.55l16.8-14l26.39-21.99
							C456.55,400.34,457.31,398.07,456.57,395.81z"/>
						<path class="st3" d="M544.39,383.35c-5.6,0.61-10.95,1.21-16.29,1.84L544.39,383.35z"/>
						<path class="st3" d="M524.67,385.56l-7.8,0.88l0.55-0.03C519.86,386.13,522.27,385.84,524.67,385.56z"/>
					</g>
					<g>
						<circle class="st3" cx="501.16" cy="536.99" r="3.62"/>
						<circle class="st3" cx="452.21" cy="507.16" r="3.62"/>
						<polygon class="st4" points="454.76,504.6 482.54,457.19 501.06,457.29 519.57,457.14 547.47,504.48 523.89,498.15 
							501.16,533.37 478.33,498.21 						"/>
						<circle class="st3" cx="550.04" cy="507.03" r="3.62"/>
					</g>
				</g>
			</g>
			<g>
				<g>
					<g>
						<path class="st3" d="M447.18,286.22c-0.59,5.6-1.19,10.95-1.79,16.29L447.18,286.22z"/>
						<polygon class="st4" points="458.39,316.53 458.43,343.5 446.37,336.68 434.25,329.84 446.44,323.11 						"/>
						<path class="st3" d="M445.02,305.94l-0.86,7.81l0.03-0.55C444.47,310.75,444.74,308.34,445.02,305.94z"/>
						<path class="st3" d="M434.83,285.42l4.35-1.25l8.49-2.45l-0.22,2.07l-0.26,2.43l-1.79,16.29l-0.32,2.91l-0.05,0.52
							c-0.28,2.4-0.55,4.82-0.83,7.26l-0.03,0.55l-0.17,1.57l-0.39,0.21l-8.08,4.61l-17.04,9.71l17.06,9.66l8.09,4.59l0.39,0.21
							l0.18,1.57l0.03,0.55c0.28,2.44,0.57,4.86,0.85,7.26l0.05,0.52l0.32,2.91l1.84,16.29l0.27,2.43l0.23,2.07l-8.5-2.43
							l-4.35-1.23c-2.26-0.73-4.52,0.03-6.03,2.32L406.99,403l-13.96,16.84l-4.57-9.03c-1.53-3.76-3.79-3-9.07-1.47l-24.87,6.98
							l5.14-24.91c-0.02-1.77-0.62-3.83-2.49-4.4c-3.99-1.24-7.97-2.5-11.93-3.77l0.05-0.04l-0.03-0.01l24.65-22.83l11.31-10.49
							l-0.15-19.97l0.09-19.97l-11.34-10.46l-24.71-22.77l0.03-0.01l-0.05-0.04c3.96-1.29,7.93-2.56,11.92-3.8
							c1.87-0.58,2.46-2.63,2.48-4.41l-5.21-24.9l24.89,6.92c5.28,1.51,7.55,2.27,9.07-1.49l4.55-9.04l14,16.8l21.99,26.39
							C430.31,285.4,432.57,286.16,434.83,285.42z"/>
						<path class="st3" d="M447.3,373.24c-0.61-5.6-1.21-10.95-1.84-16.29L447.3,373.24z"/>
						<path class="st3" d="M445.08,353.52l-0.88-7.8l0.03,0.55C444.52,348.71,444.8,351.12,445.08,353.52z"/>
					</g>
					<g>
						<circle class="st3" cx="293.66" cy="330.01" r="3.62"/>
						<circle class="st3" cx="323.48" cy="281.06" r="3.62"/>
						<polygon class="st4" points="326.04,283.61 373.45,311.39 373.35,329.9 373.5,348.42 326.17,376.32 332.5,352.74 297.27,330 
							332.44,307.17 						"/>
						<circle class="st3" cx="323.61" cy="378.89" r="3.62"/>
					</g>
				</g>
			</g>
			<g>
				<g>
					<g>
						<path class="st3" d="M544.43,276.03c-5.6-0.59-10.95-1.19-16.29-1.79L544.43,276.03z"/>
						<polygon class="st4" points="514.11,287.24 487.14,287.28 493.97,275.22 500.8,263.1 507.53,275.28 						"/>
						<path class="st3" d="M524.7,273.87l-7.81-0.86l0.55,0.03C519.89,273.31,522.3,273.59,524.7,273.87z"/>
						<path class="st3" d="M545.22,263.67l1.25,4.35l2.45,8.49l-2.07-0.22l-2.43-0.26l-16.29-1.79l-2.91-0.32l-0.52-0.05
							c-2.4-0.28-4.82-0.55-7.26-0.83l-0.55-0.03l-1.57-0.17l-0.21-0.39l-4.61-8.08l-9.71-17.04l-9.66,17.06l-4.59,8.09l-0.21,0.39
							l-1.57,0.18l-0.55,0.03c-2.44,0.28-4.86,0.57-7.26,0.85l-0.52,0.05l-2.91,0.32l-16.29,1.84l-2.43,0.27l-2.07,0.23l2.43-8.5
							l1.23-4.35c0.73-2.26-0.03-4.52-2.32-6.03l-26.44-21.92l-16.84-13.96l9.03-4.57c3.76-1.53,3-3.79,1.47-9.07l-6.98-24.87
							l24.91,5.14c1.77-0.02,3.83-0.62,4.4-2.49c1.24-3.99,2.5-7.97,3.77-11.93l0.04,0.05l0.01-0.03l22.83,24.65l10.49,11.31
							l19.97-0.15l19.97,0.09l10.46-11.34l22.77-24.71l0.01,0.03l0.04-0.05c1.29,3.96,2.56,7.93,3.8,11.92
							c0.58,1.87,2.63,2.46,4.41,2.48l24.9-5.21l-6.92,24.89c-1.51,5.28-2.27,7.55,1.49,9.07l9.04,4.55l-16.8,14l-26.39,21.99
							C545.24,259.15,544.49,261.42,545.22,263.67z"/>
						<path class="st3" d="M457.41,276.14c5.6-0.61,10.95-1.21,16.29-1.84L457.41,276.14z"/>
						<path class="st3" d="M477.12,273.93l7.8-0.88l-0.55,0.03C481.94,273.36,479.52,273.65,477.12,273.93z"/>
					</g>
					<g>
						<circle class="st3" cx="500.63" cy="122.5" r="3.62"/>
						<circle class="st3" cx="549.59" cy="152.33" r="3.62"/>
						<polygon class="st4" points="547.03,154.89 519.26,202.3 500.74,202.2 482.22,202.35 454.32,155.01 477.9,161.34 
							500.64,126.12 523.47,161.28 						"/>
						<circle class="st3" cx="451.76" cy="152.46" r="3.62"/>
					</g>
				</g>
			</g>
			<g>
				<g>
					<g>
						<path class="st3" d="M554.61,373.27c0.59-5.6,1.19-10.95,1.79-16.29L554.61,373.27z"/>
						<polygon class="st4" points="543.4,342.96 543.37,315.99 555.42,322.81 567.54,329.65 555.36,336.38 						"/>
						<path class="st3" d="M556.77,353.55l0.86-7.81l-0.03,0.55C557.33,348.73,557.05,351.15,556.77,353.55z"/>
						<path class="st3" d="M566.97,374.07l-4.35,1.25l-8.49,2.45l0.22-2.07l0.26-2.43l1.79-16.29l0.32-2.91l0.05-0.52
							c0.28-2.4,0.55-4.82,0.83-7.26l0.03-0.55l0.17-1.57l0.39-0.21l8.08-4.61l17.04-9.71l-17.06-9.66l-8.09-4.59l-0.39-0.21
							l-0.18-1.57l-0.03-0.55c-0.28-2.44-0.57-4.86-0.85-7.26l-0.05-0.52l-0.32-2.91l-1.84-16.29l-0.27-2.43l-0.23-2.07l8.5,2.43
							l4.35,1.23c2.26,0.73,4.52-0.03,6.03-2.32l21.92-26.44l13.96-16.84l4.57,9.03c1.53,3.76,3.79,3,9.07,1.47l24.87-6.98
							l-5.14,24.91c0.02,1.77,0.62,3.83,2.49,4.4c3.99,1.24,7.97,2.5,11.93,3.77l-0.05,0.04l0.03,0.01l-24.65,22.83l-11.31,10.49
							l0.15,19.97l-0.09,19.97l11.34,10.46l24.71,22.77l-0.03,0.01l0.05,0.04c-3.96,1.29-7.93,2.56-11.92,3.8
							c-1.87,0.58-2.46,2.63-2.48,4.41l5.21,24.9l-24.89-6.92c-5.28-1.51-7.55-2.27-9.07,1.49l-4.55,9.04l-14-16.8L573,376.37
							C571.49,374.09,569.22,373.33,566.97,374.07z"/>
						<path class="st3" d="M554.5,286.25c0.61,5.6,1.21,10.95,1.84,16.29L554.5,286.25z"/>
						<path class="st3" d="M556.71,305.97l0.88,7.8l-0.03-0.55C557.28,310.78,557,308.37,556.71,305.97z"/>
					</g>
					<g>
						<circle class="st3" cx="708.14" cy="329.48" r="3.62"/>
						<circle class="st3" cx="678.31" cy="378.43" r="3.62"/>
						<polygon class="st4" points="675.75,375.88 628.34,348.1 628.44,329.59 628.29,311.07 675.63,283.17 669.3,306.75 
							704.52,329.49 669.36,352.31 						"/>
						<circle class="st3" cx="678.18" cy="280.6" r="3.62"/>
					</g>
				</g>
			</g>
		</g>
		<circle class="st3" cx="500.41" cy="329.71" r="27.91"/>
	</g>
	<g>
		<g>
			<path class="st3" d="M184.39,836.67c-1.32-0.7-2.33-1.67-3.03-2.9c-0.7-1.23-1.05-3.12-1.05-5.67c0-1.85,0.5-3.8,1.52-5.87
				c1.01-2.06,2.2-4.09,3.56-6.07c1.36-1.98,2.53-3.76,3.49-5.34c3.6-5.98,7.3-12,11.08-18.07c3.78-6.07,6.9-11.87,9.36-17.41
				c-0.7,0.18-1.38,0.29-2.04,0.33c-0.66,0.05-1.34,0.11-2.04,0.2c-0.35,0.09-0.73,0.13-1.12,0.13c-0.4,0-0.77,0-1.12,0
				c-1.85,0-3.17-0.31-3.96-0.92c-0.79-0.61-1.19-1.36-1.19-2.24c0-0.35,0.07-0.68,0.2-0.99c0.13-0.31,0.24-0.64,0.33-0.99
				c2.2-0.18,4.46-0.48,6.79-0.92c2.33-0.44,4.64-0.97,6.92-1.58c0.18-0.61,0.37-1.25,0.59-1.91c0.22-0.66,0.37-1.3,0.46-1.91
				c1.06,0,1.85,0.29,2.37,0.86c0.53,0.57,0.92,1.21,1.19,1.91c2.81-0.7,5.54-1.32,8.18-1.85c2.64-0.53,5.1-0.79,7.38-0.79
				c4.75,0,8.13,1.3,10.15,3.89c2.02,2.59,3.03,5.69,3.03,9.3c0,3.25-1.08,6.84-3.23,10.75c-2.15,3.91-5.03,7.67-8.64,11.27
				c-3.61,3.61-7.63,6.55-12.07,8.84c-4.44,2.29-8.9,3.43-13.38,3.43c-1.76,0-3.54-0.22-5.34-0.66c-1.8-0.44-3.54-1.14-5.21-2.11
				c-1.14,2.02-2.31,4.11-3.49,6.26c-1.19,2.15-2.31,4.29-3.36,6.39c-1.67,3.17-3.1,6.09-4.29,8.77
				C185.24,833.49,184.56,835.44,184.39,836.67z M198.89,807.14c2.9,0.18,6.22-0.28,9.96-1.38c3.74-1.1,7.54-2.66,11.41-4.68
				c3.87-2.02,7.45-4.39,10.75-7.12c3.3-2.72,5.95-5.6,7.98-8.64c2.02-3.03,3.03-6.04,3.03-9.03c0-3.43-3.08-5.14-9.23-5.14
				c-2.55,0-5.19,0.26-7.91,0.79c-2.73,0.53-5.41,1.1-8.04,1.71c-0.35,1.67-1.19,3.89-2.51,6.66c-1.32,2.77-2.84,5.69-4.55,8.77
				c-1.71,3.08-3.36,5.96-4.94,8.64c-1.58,2.68-2.86,4.81-3.82,6.4L198.89,807.14z"/>
			<path class="st3" d="M244.52,837.07c-3.25,0-5.85-0.95-7.78-2.84c-1.93-1.89-2.9-4.55-2.9-7.98c0-2.64,0.5-5.41,1.52-8.31
				c1.01-2.9,2-5.19,2.97-6.86c2.02-3.69,4.46-7.08,7.32-10.15c2.86-3.08,5.8-5.56,8.84-7.45c3.03-1.89,5.82-2.84,8.37-2.84
				c2.37,0,4.42,0.66,6.13,1.98c1.71,1.32,2.57,3.08,2.57,5.27c0,0.88-0.22,1.89-0.66,3.03c-0.44,1.14-1.14,2.33-2.11,3.56
				c-3.52,4.48-7.41,7.98-11.67,10.48c-4.27,2.51-9.12,4.37-14.57,5.6c-0.35,1.14-0.66,2.27-0.92,3.36c-0.26,1.1-0.48,2.13-0.66,3.1
				c-0.09,0.44-0.15,0.86-0.2,1.25c-0.05,0.4-0.07,0.81-0.07,1.25c0,1.76,0.42,3.01,1.25,3.76c0.83,0.75,1.87,1.12,3.1,1.12
				c1.93,0,4-0.5,6.2-1.52c2.2-1.01,4.26-2.18,6.2-3.5c1.93-1.32,3.38-2.37,4.35-3.17c0.97-0.88,1.91-1.78,2.84-2.7
				c0.92-0.92,1.96-1.96,3.1-3.1c0.88-0.97,1.71-1.91,2.51-2.84c0.79-0.92,1.54-1.87,2.24-2.84c0.26-0.26,0.48-0.39,0.66-0.39
				c0.53,0,0.79,0.39,0.79,1.19c0,0.44-0.18,0.84-0.53,1.19c-1.58,1.93-3.17,3.85-4.75,5.74c-1.58,1.89-3.21,3.71-4.88,5.47
				c-1.93,2.02-4.59,4.04-7.98,6.07C252.41,836.06,248.65,837.07,244.52,837.07z M243.33,818.87c2.28-0.97,4.94-2.37,7.98-4.22
				c3.03-1.85,5.98-4.06,8.84-6.66c2.86-2.59,5.21-5.38,7.05-8.37c0.61-0.97,0.92-1.85,0.92-2.64c0-1.23-0.7-1.85-2.11-1.85
				c-0.97,0-2.15,0.35-3.56,1.05c-4.4,2.37-8.18,5.58-11.34,9.63C247.95,809.86,245.35,814.21,243.33,818.87z"/>
			<path class="st3" d="M289.74,835.75c-1.67,0-3.08-0.57-4.22-1.71c-1.14-1.14-1.71-2.77-1.71-4.88c0-0.97,0.09-1.87,0.26-2.7
				c0.18-0.83,0.4-1.56,0.66-2.18c0.44-1.32,1.27-3.03,2.51-5.14c1.23-2.11,2.59-4.33,4.09-6.66c1.49-2.33,2.77-4.42,3.82-6.26
				c1.32-2.28,1.98-4.26,1.98-5.93c0-1.85-0.79-3.3-2.37-4.35c-0.62-0.44-1.23-0.86-1.85-1.25c-0.62-0.4-1.14-0.77-1.58-1.12
				l-3.69,5.93c-2.11,2.9-4.31,5.89-6.59,8.97c-2.29,3.08-4.48,5.91-6.59,8.51c-2.11,2.59-3.91,4.77-5.41,6.53
				c-0.26,0.26-0.53,0.4-0.79,0.4c-0.44,0-0.79-0.22-1.06-0.66c-0.26-0.44-0.22-0.83,0.13-1.19c3.43-3.87,6.72-7.82,9.89-11.87
				c3.16-4.04,6.11-8.35,8.83-12.92l3.17-5.41c-0.35-0.26-0.9-0.84-1.65-1.71c-0.75-0.88-1.45-1.87-2.11-2.97
				c-0.66-1.1-0.99-2.04-0.99-2.84c0-0.7,0.24-1.25,0.73-1.65c0.48-0.4,1.34-0.59,2.57-0.59c2.99,0,4.44,3.21,4.35,9.63
				c1.23,0.97,2.59,1.71,4.09,2.24c1.49,0.53,2.92,1.03,4.29,1.52c1.36,0.48,2.48,1.17,3.36,2.04c0.88,0.88,1.32,2.2,1.32,3.96
				c0,1.49-0.42,3.23-1.25,5.21c-0.84,1.98-1.83,3.71-2.97,5.21c-0.97,1.32-2.09,2.9-3.36,4.75c-1.28,1.85-2.48,3.69-3.63,5.54
				c-1.14,1.85-1.98,3.52-2.51,5.01c-0.44,1.14-0.66,1.98-0.66,2.51c0,1.14,0.53,1.71,1.58,1.71c0.97,0,2.15-0.4,3.56-1.19
				c1.85-0.97,3.76-2.35,5.74-4.15c1.98-1.8,3.8-3.67,5.47-5.6c0.97-0.97,1.85-1.91,2.64-2.84c0.79-0.92,1.54-1.87,2.24-2.84
				c0.26-0.26,0.48-0.39,0.66-0.39c0.53,0,0.79,0.39,0.79,1.19c0,0.44-0.18,0.84-0.53,1.19c-1.85,2.2-3.74,4.51-5.67,6.92
				c-1.93,2.42-4,4.6-6.2,6.53c-1.32,1.06-3.03,2.24-5.14,3.56C293.83,835.09,291.77,835.75,289.74,835.75z"/>
			<path class="st3" d="M305.57,881.11c-2.46,0-4.17-0.88-5.14-2.64c-0.97-1.76-1.45-4.04-1.45-6.86c0-1.76,0.15-3.69,0.46-5.8
				c0.31-2.11,0.73-4.26,1.25-6.46c2.37-9.85,5.78-19.52,10.22-29.01c4.44-9.49,8.94-18.99,13.52-28.48h-2.51
				c-0.97,0-1.45-0.26-1.45-0.79c0-0.35,0.24-0.68,0.73-0.99c0.48-0.31,1.16-0.46,2.04-0.46h1.98c2.28-4.92,4.53-9.47,6.73-13.65
				c2.2-4.18,4.66-8.68,7.38-13.52c2.02-3.6,4.35-6.46,6.99-8.57c2.64-2.11,5.23-3.17,7.78-3.17c0.26,0,0.55,0,0.86,0
				c0.31,0,0.59,0.05,0.86,0.13c-2.9,4.13-5.52,8.07-7.85,11.8c-2.33,3.74-4.64,7.74-6.92,12c-2.29,4.26-4.92,9.25-7.91,14.97h16.09
				c0.44,0,0.66,0.22,0.66,0.66c0,0.35-0.15,0.7-0.46,1.05c-0.31,0.35-0.68,0.53-1.12,0.53h-16.35l-2.37,4.88
				c0.61,1.76,1.06,3.85,1.32,6.26c0.26,2.42,0.4,4.9,0.4,7.45c0,4.04-0.24,8.13-0.73,12.26c-0.48,4.13-0.99,7.56-1.52,10.28
				c-1.32,6.77-3.06,13.06-5.21,18.86c-2.15,5.8-4.73,10.46-7.71,13.98C313.13,879.35,309.61,881.11,305.57,881.11z M306.89,878.87
				c1.67,0,3.32-0.95,4.94-2.84c1.63-1.89,3.17-4.2,4.62-6.92c1.45-2.73,2.7-5.41,3.76-8.04c1.06-2.64,1.85-4.66,2.37-6.07
				c0.97-2.64,1.91-5.93,2.84-9.89c0.92-3.96,1.67-8.16,2.24-12.59c0.57-4.44,0.86-8.68,0.86-12.73c0-3.43-0.26-6.46-0.79-9.1
				c-1.58,3.43-3.41,7.41-5.47,11.93c-2.07,4.53-4.15,9.28-6.26,14.24c-2.11,4.96-4.04,9.84-5.8,14.64
				c-1.76,4.79-3.19,9.19-4.29,13.19c-1.1,4-1.65,7.23-1.65,9.69C304.25,877.29,305.13,878.78,306.89,878.87z"/>
			<path class="st3" d="M355.02,837.07c-3.25,0-5.85-0.95-7.78-2.84c-1.93-1.89-2.9-4.55-2.9-7.98c0-2.64,0.5-5.41,1.52-8.31
				c1.01-2.9,2-5.19,2.97-6.86c2.02-3.69,4.46-7.08,7.32-10.15c2.86-3.08,5.8-5.56,8.84-7.45c3.03-1.89,5.82-2.84,8.37-2.84
				c2.37,0,4.42,0.66,6.13,1.98c1.71,1.32,2.57,3.08,2.57,5.27c0,0.88-0.22,1.89-0.66,3.03c-0.44,1.14-1.14,2.33-2.11,3.56
				c-3.52,4.48-7.41,7.98-11.67,10.48c-4.27,2.51-9.12,4.37-14.57,5.6c-0.35,1.14-0.66,2.27-0.92,3.36c-0.26,1.1-0.48,2.13-0.66,3.1
				c-0.09,0.44-0.15,0.86-0.2,1.25c-0.05,0.4-0.07,0.81-0.07,1.25c0,1.76,0.42,3.01,1.25,3.76c0.83,0.75,1.87,1.12,3.1,1.12
				c1.93,0,4-0.5,6.2-1.52c2.2-1.01,4.26-2.18,6.2-3.5c1.93-1.32,3.38-2.37,4.35-3.17c0.97-0.88,1.91-1.78,2.84-2.7
				c0.92-0.92,1.96-1.96,3.1-3.1c0.88-0.97,1.71-1.91,2.51-2.84c0.79-0.92,1.54-1.87,2.24-2.84c0.26-0.26,0.48-0.39,0.66-0.39
				c0.53,0,0.79,0.39,0.79,1.19c0,0.44-0.18,0.84-0.53,1.19c-1.58,1.93-3.17,3.85-4.75,5.74c-1.58,1.89-3.21,3.71-4.88,5.47
				c-1.93,2.02-4.59,4.04-7.98,6.07C362.91,836.06,359.15,837.07,355.02,837.07z M353.83,818.87c2.28-0.97,4.94-2.37,7.98-4.22
				c3.03-1.85,5.98-4.06,8.84-6.66c2.86-2.59,5.21-5.38,7.05-8.37c0.61-0.97,0.92-1.85,0.92-2.64c0-1.23-0.7-1.85-2.11-1.85
				c-0.97,0-2.15,0.35-3.56,1.05c-4.4,2.37-8.18,5.58-11.34,9.63C358.45,809.86,355.85,814.21,353.83,818.87z"/>
			<path class="st3" d="M392.99,837.07c-3.43,0-6.2-0.88-8.31-2.64c-2.11-1.76-3.16-4.53-3.16-8.31c0-2.64,0.42-5.38,1.25-8.24
				c0.83-2.86,1.69-5.12,2.57-6.79c1.85-3.69,4.09-7.08,6.73-10.15c2.64-3.08,5.43-5.56,8.37-7.45c2.94-1.89,5.69-2.84,8.24-2.84
				c2.55,0,4.53,0.86,5.93,2.57c1.4,1.71,2.11,3.58,2.11,5.6c0,1.76-0.48,3.25-1.45,4.48c-1.23,1.67-2.29,2.86-3.17,3.56
				c-0.88,0.7-1.54,1.05-1.98,1.05c-0.44,0-0.66-0.31-0.66-0.92c0-0.53,0.22-1.36,0.66-2.51c0.18-0.53,0.53-1.45,1.06-2.77
				c0.53-1.32,1.01-2.64,1.45-3.96c0.44-1.32,0.61-2.2,0.53-2.64c-1.32-0.26-3.19,0.46-5.6,2.18c-2.42,1.71-4.9,3.96-7.45,6.72
				c-2.55,2.77-4.66,5.69-6.33,8.77c-0.35,0.7-0.97,2.02-1.85,3.96c-0.88,1.93-1.67,4.02-2.37,6.26c-0.7,2.24-1.05,4.33-1.05,6.26
				c0,1.5,0.35,2.75,1.05,3.76c0.7,1.01,1.89,1.52,3.56,1.52c1.41,0,3.08-0.35,5.01-1.05c3.34-1.05,6.44-2.81,9.3-5.27
				c2.86-2.46,5.52-5.05,7.98-7.78c0.88-0.97,1.71-1.89,2.51-2.77c0.79-0.88,1.54-1.76,2.24-2.64c0.18-0.18,0.33-0.33,0.46-0.46
				c0.13-0.13,0.24-0.2,0.33-0.2c0.44,0,0.66,0.35,0.66,1.05c0,0.62-0.18,1.14-0.53,1.58c-0.88,1.14-1.8,2.29-2.77,3.43
				c-0.97,1.14-1.93,2.29-2.9,3.43c-2.9,3.25-6.18,6.26-9.82,9.03C401.94,835.69,397.74,837.07,392.99,837.07z"/>
			<path class="st3" d="M425.3,835.49c-1.93,0-3.56-0.57-4.88-1.71c-1.32-1.14-1.98-3.08-1.98-5.8c0-0.7,0.04-1.4,0.13-2.11
				c0.09-0.7,0.22-1.45,0.4-2.24c0.7-3.52,2.15-7.8,4.35-12.86c2.2-5.05,5.01-10.79,8.44-17.21h-5.01c-0.97,0-1.45-0.26-1.45-0.79
				c0-0.26,0.24-0.55,0.73-0.86c0.48-0.31,1.16-0.46,2.04-0.46h4.75c1.49-2.55,2.7-4.55,3.63-6c0.92-1.45,1.69-2.57,2.31-3.36
				c2.29-2.9,4.37-4.94,6.26-6.13c1.89-1.19,3.54-1.87,4.94-2.04c1.41-0.18,2.42-0.26,3.03-0.26c-1.23,1.32-2.59,3.03-4.09,5.14
				c-1.5,2.11-2.95,4.29-4.35,6.53c-1.41,2.24-2.59,4.29-3.56,6.13h13.45c0.97,0,1.45,0.22,1.45,0.66c0,0.35-0.26,0.68-0.79,0.99
				c-0.53,0.31-1.23,0.46-2.11,0.46h-13.32c-1.41,2.55-2.66,4.81-3.76,6.79c-1.1,1.98-2.2,4.07-3.3,6.26
				c-1.1,2.2-2.44,4.92-4.02,8.18c-1.23,2.73-2.13,5.06-2.7,6.99c-0.57,1.94-0.86,3.56-0.86,4.88c0,1.67,0.35,2.86,1.06,3.56
				c0.7,0.71,1.58,1.06,2.64,1.06c1.06,0,2.28-0.35,3.69-1.06c1.93-0.97,3.87-2.37,5.8-4.22c1.93-1.85,3.78-3.73,5.54-5.67
				c0.88-0.97,1.71-1.89,2.51-2.77c0.79-0.88,1.54-1.8,2.24-2.77c0.26-0.26,0.48-0.39,0.66-0.39c0.53,0,0.79,0.35,0.79,1.05
				c0,0.53-0.18,0.97-0.53,1.32c-1.85,2.29-3.78,4.62-5.8,6.99c-2.37,2.73-5.01,5.36-7.91,7.91
				C432.82,834.21,429.34,835.49,425.3,835.49z"/>
			<path class="st3" d="M474.48,836.67c-1.32-0.7-2.33-1.67-3.03-2.9c-0.7-1.23-1.05-3.12-1.05-5.67c0-1.85,0.5-3.8,1.52-5.87
				c1.01-2.06,2.2-4.09,3.56-6.07c1.36-1.98,2.53-3.76,3.49-5.34c3.6-5.98,7.3-12,11.08-18.07c3.78-6.07,6.9-11.87,9.36-17.41
				c-0.7,0.18-1.38,0.29-2.04,0.33c-0.66,0.05-1.34,0.11-2.04,0.2c-0.35,0.09-0.73,0.13-1.12,0.13c-0.4,0-0.77,0-1.12,0
				c-1.85,0-3.17-0.31-3.96-0.92c-0.79-0.61-1.19-1.36-1.19-2.24c0-0.35,0.07-0.68,0.2-0.99c0.13-0.31,0.24-0.64,0.33-0.99
				c2.2-0.18,4.46-0.48,6.79-0.92c2.33-0.44,4.64-0.97,6.92-1.58c0.18-0.61,0.37-1.25,0.59-1.91c0.22-0.66,0.37-1.3,0.46-1.91
				c1.05,0,1.85,0.29,2.37,0.86c0.53,0.57,0.92,1.21,1.19,1.91c2.81-0.7,5.54-1.32,8.18-1.85c2.64-0.53,5.1-0.79,7.38-0.79
				c4.75,0,8.13,1.3,10.15,3.89c2.02,2.59,3.03,5.69,3.03,9.3c0,3.25-1.08,6.84-3.23,10.75c-2.15,3.91-5.03,7.67-8.64,11.27
				c-3.61,3.61-7.63,6.55-12.07,8.84c-4.44,2.29-8.9,3.43-13.38,3.43c-1.76,0-3.54-0.22-5.34-0.66c-1.8-0.44-3.54-1.14-5.21-2.11
				c-1.14,2.02-2.31,4.11-3.49,6.26c-1.19,2.15-2.31,4.29-3.36,6.39c-1.67,3.17-3.1,6.09-4.29,8.77
				C475.34,833.49,474.66,835.44,474.48,836.67z M488.99,807.14c2.9,0.18,6.22-0.28,9.96-1.38c3.74-1.1,7.54-2.66,11.41-4.68
				c3.87-2.02,7.45-4.39,10.75-7.12c3.3-2.72,5.95-5.6,7.98-8.64c2.02-3.03,3.03-6.04,3.03-9.03c0-3.43-3.08-5.14-9.23-5.14
				c-2.55,0-5.19,0.26-7.91,0.79c-2.73,0.53-5.41,1.1-8.04,1.71c-0.35,1.67-1.19,3.89-2.51,6.66s-2.84,5.69-4.55,8.77
				c-1.71,3.08-3.36,5.96-4.95,8.64c-1.58,2.68-2.86,4.81-3.82,6.4L488.99,807.14z"/>
			<path class="st3" d="M531.84,835.49c-1.67,0-3.08-0.55-4.22-1.65c-1.14-1.1-1.71-3.01-1.71-5.74c0-0.61,0.04-1.3,0.13-2.04
				c0.09-0.74,0.22-1.56,0.39-2.44c0.44-2.37,1.36-5.41,2.77-9.1c1.41-3.69,3.08-7.63,5.01-11.8c1.93-4.17,3.91-8.22,5.93-12.13
				c2.02-3.91,3.87-7.27,5.54-10.09c3.25-5.36,6.28-9.5,9.1-12.4s5.32-4.88,7.52-5.93c2.2-1.05,4.04-1.54,5.54-1.45
				c-2.29,2.55-4.79,5.67-7.52,9.36c-2.73,3.69-5.63,8.13-8.7,13.32c-3.87,6.68-7.23,12.75-10.09,18.2
				c-2.86,5.45-5.3,11.03-7.32,16.75c-1.14,3.34-1.71,6.07-1.71,8.18c0,2.99,1.01,4.48,3.03,4.48c1.58,0,3.36-0.79,5.34-2.37
				c1.98-1.58,3.54-2.99,4.68-4.22c1.76-1.76,3.32-3.41,4.68-4.95c1.36-1.54,2.7-3.1,4.02-4.68c0.26-0.26,0.48-0.39,0.66-0.39
				c0.53,0,0.79,0.39,0.79,1.19c0,0.44-0.18,0.84-0.53,1.19c-0.97,1.14-1.91,2.31-2.84,3.49c-0.92,1.19-1.91,2.35-2.97,3.5
				c-0.88,1.14-1.87,2.26-2.97,3.36c-1.1,1.1-2.18,2.13-3.23,3.1c-1.5,1.41-3.3,2.64-5.41,3.69
				C535.67,834.96,533.69,835.49,531.84,835.49z"/>
			<path class="st3" d="M559.14,835.62c-2.9,0-4.92-0.7-6.07-2.11c-1.14-1.4-1.71-3.12-1.71-5.14c0-2.64,0.64-5.45,1.91-8.44
				c1.27-2.99,2.39-5.32,3.36-6.99c2.37-3.78,5.19-7.38,8.44-10.81c3.25-3.43,6.7-6.22,10.35-8.37c3.65-2.15,7.14-3.23,10.48-3.23
				c1.76,0,3.47,0.29,5.14,0.86c1.67,0.57,3.3,1.52,4.88,2.84c0.79,0.62,1.34,1.21,1.65,1.78c0.31,0.57,0.46,1.08,0.46,1.52
				c0,1.32-0.57,1.98-1.71,1.98c-0.79,0-1.36-0.53-1.71-1.58c-1.14-2.99-2.99-4.48-5.54-4.48c-2.2,0-4.7,1.01-7.52,3.03
				c-2.81,2.02-5.58,4.44-8.31,7.25c-2.99,3.17-5.72,6.57-8.18,10.22c-2.46,3.65-4.31,6.97-5.54,9.96
				c-0.62,1.32-1.03,2.48-1.25,3.49c-0.22,1.01-0.33,1.87-0.33,2.57c0,1.58,0.66,2.37,1.98,2.37c1.49,0,3.69-1.1,6.59-3.3
				c2.11-1.67,4.29-3.69,6.53-6.06c2.24-2.37,4.33-4.72,6.26-7.05c1.93-2.33,3.47-4.15,4.62-5.47c0.44-0.7,0.86-1.36,1.25-1.98
				c0.39-0.61,0.77-1.14,1.12-1.58c0.35-0.44,0.94-0.79,1.78-1.05c0.83-0.26,1.69-0.4,2.57-0.4c1.05,0,1.93,0.18,2.64,0.53
				c0.7,0.35,0.83,0.97,0.4,1.85c0,0.09-0.48,0.99-1.45,2.7c-0.97,1.71-2.09,3.76-3.36,6.13c-1.28,2.37-2.4,4.66-3.36,6.86
				c-0.53,1.23-0.97,2.37-1.32,3.43c-0.35,1.05-0.53,1.93-0.53,2.64c0,1.14,0.44,1.71,1.32,1.71c0.61,0,1.54-0.35,2.77-1.06
				c1.93-0.97,3.89-2.37,5.87-4.22c1.98-1.85,3.8-3.73,5.47-5.67c0.97-0.97,1.85-1.89,2.64-2.77c0.79-0.88,1.54-1.8,2.24-2.77
				c0.26-0.26,0.48-0.39,0.66-0.39c0.53,0,0.79,0.39,0.79,1.19c0,0.44-0.18,0.84-0.53,1.19c-0.97,1.14-1.94,2.31-2.9,3.49
				c-0.97,1.19-1.98,2.35-3.03,3.5c-0.97,1.14-1.96,2.26-2.97,3.36c-1.01,1.1-2.04,2.13-3.1,3.1c-3.78,3.52-7.25,5.28-10.42,5.28
				c-1.41,0-2.59-0.51-3.56-1.52c-0.97-1.01-1.45-2.61-1.45-4.81c0-1.67,0.31-3.56,0.92-5.67c0.18-0.97,0.46-1.93,0.86-2.9
				c0.4-0.97,0.77-1.98,1.12-3.03c-1.76,2.81-3.76,5.6-6,8.37c-2.24,2.77-4.64,5.08-7.19,6.92
				C564.63,834.7,561.95,835.62,559.14,835.62z"/>
			<path class="st3" d="M596.33,835.88c3.78-7.03,6.92-13.82,9.43-20.37c2.51-6.55,5.38-13.16,8.64-19.85
				c0.97-1.76,2.2-2.97,3.69-3.63c1.49-0.66,2.94-0.99,4.35-0.99c1.14,0,2.15,0.13,3.03,0.4c-0.26,0.62-0.95,1.82-2.04,3.63
				c-1.1,1.8-2.27,3.85-3.5,6.13c-0.88,1.58-2.2,4.02-3.96,7.32c-1.76,3.3-3.39,6.7-4.88,10.22c0.79-0.97,2.02-2.55,3.69-4.75
				c1.67-2.2,3.6-4.59,5.8-7.19c2.2-2.59,4.5-5.1,6.92-7.52c2.42-2.42,4.79-4.39,7.12-5.93c2.33-1.54,4.42-2.31,6.26-2.31
				c1.41,0,2.64,0.44,3.69,1.32c1.05,0.88,1.58,2.07,1.58,3.56c0,2.2-0.92,4.77-2.77,7.71c-1.85,2.95-3.69,5.83-5.54,8.64
				c-0.35,0.53-0.99,1.54-1.91,3.03c-0.92,1.5-1.91,3.19-2.97,5.08c-1.05,1.89-1.96,3.69-2.7,5.41c-0.75,1.71-1.12,3.05-1.12,4.02
				c0,0.97,0.39,1.45,1.19,1.45c1.67,0,3.41-0.66,5.21-1.98c1.8-1.32,3.54-2.84,5.21-4.55c1.67-1.71,2.99-3.14,3.96-4.29
				c0.97-1.05,1.85-2.06,2.64-3.03c0.79-0.97,1.58-1.89,2.37-2.77c0.26-0.26,0.48-0.39,0.66-0.39c0.53,0,0.79,0.39,0.79,1.19
				c0,0.53-0.18,0.97-0.53,1.32c-0.97,1.14-1.93,2.31-2.9,3.49c-0.97,1.19-1.98,2.35-3.03,3.5c-0.97,1.14-1.96,2.26-2.97,3.36
				c-1.01,1.1-2.04,2.13-3.1,3.1c-3.78,3.52-7.3,5.28-10.55,5.28c-2.2,0-3.67-0.66-4.42-1.98c-0.75-1.32-1.12-2.94-1.12-4.88
				c0-2.11,0.57-4.39,1.71-6.86c1.14-2.46,2.55-4.99,4.22-7.58c1.67-2.59,3.36-5.12,5.08-7.58c1.71-2.46,3.14-4.72,4.28-6.79
				c1.14-2.06,1.71-3.8,1.71-5.21c0-0.53-0.31-0.79-0.92-0.79c-0.53,0-1.56,0.64-3.1,1.91c-1.54,1.28-3.19,2.77-4.94,4.48
				c-1.76,1.71-3.41,3.36-4.95,4.94c-1.54,1.58-2.57,2.73-3.1,3.43c-2.2,2.37-4.33,4.92-6.39,7.65c-2.07,2.73-4.02,5.36-5.87,7.91
				c-1.05,1.49-1.98,3.01-2.77,4.55c-0.79,1.54-1.67,3.14-2.64,4.81c-0.44,0.79-1.03,1.25-1.78,1.38c-0.75,0.13-1.74,0.24-2.97,0.33
				c-0.88,0-1.58,0.02-2.11,0.07C597.51,835.33,596.94,835.53,596.33,835.88z"/>
			<path class="st3" d="M641.82,835.88c3.78-7.03,6.92-13.82,9.43-20.37c2.51-6.55,5.38-13.16,8.64-19.85
				c0.97-1.76,2.2-2.97,3.69-3.63c1.49-0.66,2.94-0.99,4.35-0.99c1.14,0,2.15,0.13,3.03,0.4c-0.26,0.62-0.95,1.82-2.04,3.63
				c-1.1,1.8-2.27,3.85-3.5,6.13c-0.88,1.58-2.2,4.02-3.96,7.32c-1.76,3.3-3.39,6.7-4.88,10.22c0.79-0.97,2.02-2.55,3.69-4.75
				c1.67-2.2,3.6-4.59,5.8-7.19c2.2-2.59,4.5-5.1,6.92-7.52c2.42-2.42,4.79-4.39,7.12-5.93c2.33-1.54,4.42-2.31,6.26-2.31
				c1.41,0,2.64,0.44,3.69,1.32c1.05,0.88,1.58,2.07,1.58,3.56c0,2.2-0.92,4.77-2.77,7.71c-1.85,2.95-3.69,5.83-5.54,8.64
				c-0.35,0.53-0.99,1.54-1.91,3.03c-0.92,1.5-1.91,3.19-2.97,5.08c-1.05,1.89-1.96,3.69-2.7,5.41c-0.75,1.71-1.12,3.05-1.12,4.02
				c0,0.97,0.39,1.45,1.19,1.45c1.67,0,3.41-0.66,5.21-1.98c1.8-1.32,3.54-2.84,5.21-4.55c1.67-1.71,2.99-3.14,3.96-4.29
				c0.97-1.05,1.85-2.06,2.64-3.03c0.79-0.97,1.58-1.89,2.37-2.77c0.26-0.26,0.48-0.39,0.66-0.39c0.53,0,0.79,0.39,0.79,1.19
				c0,0.53-0.18,0.97-0.53,1.32c-0.97,1.14-1.93,2.31-2.9,3.49c-0.97,1.19-1.98,2.35-3.03,3.5c-0.97,1.14-1.96,2.26-2.97,3.36
				c-1.01,1.1-2.04,2.13-3.1,3.1c-3.78,3.52-7.3,5.28-10.55,5.28c-2.2,0-3.67-0.66-4.42-1.98c-0.75-1.32-1.12-2.94-1.12-4.88
				c0-2.11,0.57-4.39,1.71-6.86c1.14-2.46,2.55-4.99,4.22-7.58c1.67-2.59,3.36-5.12,5.08-7.58c1.71-2.46,3.14-4.72,4.28-6.79
				c1.14-2.06,1.71-3.8,1.71-5.21c0-0.53-0.31-0.79-0.92-0.79c-0.53,0-1.56,0.64-3.1,1.91c-1.54,1.28-3.19,2.77-4.94,4.48
				c-1.76,1.71-3.41,3.36-4.95,4.94c-1.54,1.58-2.57,2.73-3.1,3.43c-2.2,2.37-4.33,4.92-6.39,7.65c-2.07,2.73-4.02,5.36-5.87,7.91
				c-1.05,1.49-1.98,3.01-2.77,4.55c-0.79,1.54-1.67,3.14-2.64,4.81c-0.44,0.79-1.03,1.25-1.78,1.38c-0.75,0.13-1.74,0.24-2.97,0.33
				c-0.88,0-1.58,0.02-2.11,0.07C643.01,835.33,642.43,835.53,641.82,835.88z"/>
			<path class="st3" d="M701.03,835.09c-1.93,0-3.61-0.64-5.01-1.91c-1.41-1.27-2.11-3.45-2.11-6.53c0-1.32,0.13-2.77,0.4-4.35
				c0.79-4.13,2.09-8.09,3.89-11.87c1.8-3.78,3.56-7.05,5.27-9.82c1.71-2.77,2.84-4.59,3.36-5.47c0.44-0.88,1.58-1.73,3.43-2.57
				c1.85-0.84,3.38-1.25,4.61-1.25c1.06,0,1.58,0.35,1.58,1.05c0,0.62-0.22,1.19-0.66,1.71c-1.32,2.11-2.84,4.51-4.55,7.19
				c-1.71,2.68-3.36,5.52-4.95,8.51c-1.58,2.99-2.9,5.93-3.96,8.84c-1.05,2.9-1.58,5.58-1.58,8.04c0,1.32,0.24,2.37,0.73,3.17
				c0.48,0.79,1.38,1.19,2.7,1.19c1.4,0,3.03-0.68,4.88-2.04c1.85-1.36,3.63-2.9,5.34-4.61c1.71-1.71,2.97-3.05,3.76-4.02
				c0.88-0.97,1.73-1.89,2.57-2.77c0.84-0.88,1.6-1.8,2.31-2.77c0.26-0.26,0.48-0.39,0.66-0.39c0.53,0,0.79,0.39,0.79,1.19
				c0,0.44-0.18,0.84-0.53,1.19c-0.97,1.14-1.94,2.31-2.9,3.49c-0.97,1.19-1.98,2.35-3.03,3.5c-1.41,1.67-2.99,3.38-4.75,5.14
				c-1.76,1.76-3.65,3.23-5.67,4.42C705.6,834.5,703.4,835.09,701.03,835.09z M719.09,783.01c-0.97,0-1.76-0.33-2.37-0.99
				c-0.62-0.66-0.92-1.43-0.92-2.31c0-1.32,0.46-2.44,1.38-3.36c0.92-0.92,1.95-1.38,3.1-1.38c1.14,0,2.04,0.38,2.7,1.12
				c0.66,0.75,0.9,1.69,0.72,2.84c-0.26,1.14-0.81,2.11-1.65,2.9C721.22,782.61,720.23,783.01,719.09,783.01z"/>
			<path class="st3" d="M715.4,835.88c3.78-7.03,6.92-13.82,9.43-20.37c2.51-6.55,5.38-13.16,8.64-19.85
				c0.97-1.76,2.2-2.97,3.69-3.63c1.49-0.66,2.94-0.99,4.35-0.99c1.14,0,2.15,0.13,3.03,0.4c-0.26,0.62-0.95,1.82-2.04,3.63
				c-1.1,1.8-2.27,3.85-3.5,6.13c-0.88,1.58-2.2,4.02-3.96,7.32c-1.76,3.3-3.39,6.7-4.88,10.22c0.79-0.97,2.02-2.55,3.69-4.75
				c1.67-2.2,3.6-4.59,5.8-7.19c2.2-2.59,4.5-5.1,6.92-7.52c2.42-2.42,4.79-4.39,7.12-5.93c2.33-1.54,4.42-2.31,6.26-2.31
				c1.41,0,2.64,0.44,3.69,1.32c1.05,0.88,1.58,2.07,1.58,3.56c0,2.2-0.92,4.77-2.77,7.71c-1.85,2.95-3.69,5.83-5.54,8.64
				c-0.35,0.53-0.99,1.54-1.91,3.03c-0.92,1.5-1.91,3.19-2.97,5.08c-1.05,1.89-1.96,3.69-2.7,5.41c-0.75,1.71-1.12,3.05-1.12,4.02
				c0,0.97,0.39,1.45,1.19,1.45c1.67,0,3.41-0.66,5.21-1.98c1.8-1.32,3.54-2.84,5.21-4.55c1.67-1.71,2.99-3.14,3.96-4.29
				c0.97-1.05,1.85-2.06,2.64-3.03c0.79-0.97,1.58-1.89,2.37-2.77c0.26-0.26,0.48-0.39,0.66-0.39c0.53,0,0.79,0.39,0.79,1.19
				c0,0.53-0.18,0.97-0.53,1.32c-0.97,1.14-1.93,2.31-2.9,3.49c-0.97,1.19-1.98,2.35-3.03,3.5c-0.97,1.14-1.96,2.26-2.97,3.36
				c-1.01,1.1-2.04,2.13-3.1,3.1c-3.78,3.52-7.3,5.28-10.55,5.28c-2.2,0-3.67-0.66-4.42-1.98c-0.75-1.32-1.12-2.94-1.12-4.88
				c0-2.11,0.57-4.39,1.71-6.86c1.14-2.46,2.55-4.99,4.22-7.58c1.67-2.59,3.36-5.12,5.08-7.58c1.71-2.46,3.14-4.72,4.28-6.79
				c1.14-2.06,1.71-3.8,1.71-5.21c0-0.53-0.31-0.79-0.92-0.79c-0.53,0-1.56,0.64-3.1,1.91c-1.54,1.28-3.19,2.77-4.94,4.48
				c-1.76,1.71-3.41,3.36-4.95,4.94c-1.54,1.58-2.57,2.73-3.1,3.43c-2.2,2.37-4.33,4.92-6.39,7.65c-2.07,2.73-4.02,5.36-5.87,7.91
				c-1.05,1.49-1.98,3.01-2.77,4.55c-0.79,1.54-1.67,3.14-2.64,4.81c-0.44,0.79-1.03,1.25-1.78,1.38c-0.75,0.13-1.74,0.24-2.97,0.33
				c-0.88,0-1.58,0.02-2.11,0.07C716.58,835.33,716.01,835.53,715.4,835.88z"/>
			<path class="st3" d="M756.27,881.11c-3.69,0-6.13-0.88-7.32-2.64c-1.19-1.76-1.73-3.61-1.65-5.54c0.26-3.25,1.38-6.33,3.36-9.23
				s4.51-5.63,7.58-8.18c3.08-2.55,6.37-4.88,9.89-6.99c3.51-2.11,6.92-4.02,10.22-5.74c3.3-1.71,6.18-3.19,8.64-4.42
				c2.46-1.23,4.18-2.2,5.14-2.9c1.32-3.87,2.28-7.58,2.9-11.14c0.61-3.56,0.83-6.7,0.66-9.43c-0.88,1.76-2.18,4.04-3.89,6.86
				c-1.71,2.81-3.67,5.41-5.87,7.78c-1.76,1.93-3.61,3.54-5.54,4.81c-1.93,1.27-3.91,1.91-5.93,1.91c-2.73,0-4.62-0.99-5.67-2.97
				c-1.05-1.98-1.58-4.2-1.58-6.66c0-0.79,0.04-1.58,0.13-2.37c0.09-0.79,0.22-1.54,0.4-2.24c0.7-2.81,1.76-5.6,3.17-8.37
				c1.4-2.77,2.88-5.27,4.42-7.52c1.54-2.24,2.84-3.93,3.89-5.08c2.55-3.08,5.56-5.6,9.03-7.58c3.47-1.98,7.01-2.97,10.62-2.97
				c3.69,0,7.16,1.23,10.42,3.69c1.32,1.05,1.98,2.15,1.98,3.3c0,1.32-0.53,1.98-1.58,1.98c-0.88,0-1.49-0.53-1.85-1.58
				c-1.14-3.25-3.03-4.88-5.67-4.88c-2.55,0-5.17,0.9-7.85,2.7c-2.68,1.8-5.25,4.15-7.71,7.05c-2.46,2.9-4.68,5.98-6.66,9.23
				c-1.98,3.25-3.54,6.38-4.68,9.36c-1.14,2.99-1.71,5.45-1.71,7.38c0,2.37,0.92,3.56,2.77,3.56c1.67,0,3.49-0.84,5.47-2.51
				c1.98-1.67,3.89-3.76,5.74-6.26s3.47-4.99,4.88-7.45c1.4-2.46,2.33-4.48,2.77-6.06c0.61-1.93,1.36-3.21,2.24-3.83
				c0.88-0.61,1.8-0.92,2.77-0.92c0.35,0,0.68,0.02,0.99,0.07c0.31,0.05,0.64,0.11,0.99,0.2c0.09,0.44,0.15,1.1,0.2,1.98
				c0.04,0.88,0.06,1.94,0.06,3.17c0,2.55-0.15,5.67-0.46,9.36c-0.31,3.69-0.86,7.34-1.65,10.94l1.45-1.05
				c2.28-1.67,4.53-3.38,6.72-5.14c2.2-1.76,3.83-3.25,4.88-4.48c0.97-0.97,1.85-1.89,2.64-2.77c0.79-0.88,1.54-1.8,2.24-2.77
				c0.18-0.26,0.4-0.39,0.66-0.39c0.53,0,0.79,0.35,0.79,1.05c0,0.44-0.22,0.88-0.66,1.32c-1.85,2.29-3.78,4.62-5.8,6.99
				c-0.53,0.62-1.83,1.82-3.89,3.63c-2.07,1.8-4.24,3.5-6.53,5.08c-1.14,0.88-2.29,1.63-3.43,2.24c-1.67,5.8-3.98,11.45-6.92,16.94
				c-2.95,5.49-6.35,10.46-10.22,14.9c-3.87,4.44-8,7.98-12.4,10.61C765.46,879.79,760.94,881.11,756.27,881.11z M755.62,878.34
				c3.43,0,6.94-1.27,10.55-3.82c3.6-2.55,7.08-5.83,10.42-9.82c3.34-4,6.28-8.26,8.83-12.79c2.55-4.53,4.44-8.77,5.67-12.73
				c-1.49,0.97-3.8,2.22-6.92,3.76c-3.12,1.54-6.57,3.36-10.35,5.47c-3.78,2.11-7.41,4.44-10.88,6.99
				c-3.47,2.55-6.39,5.34-8.77,8.37c-2.37,3.03-3.65,6.22-3.83,9.56c-0.09,1.14,0.26,2.26,1.05,3.36
				C752.19,877.79,753.59,878.34,755.62,878.34z"/>
		</g>
		<g>
			<path class="st4" d="M159.87,644.69v21.47h-30.05v62.93h-20.74v-62.93H79.03v-21.47H159.87z"/>
			<path class="st4" d="M255.23,729.09h-22.29l-6.65-15.49h-43.47l-6.65,15.49h-22.29l39.92-84.4h21.51L255.23,729.09z
				 M204.56,666.15l-13.08,28.17h26.17L204.56,666.15z"/>
			<path class="st4" d="M332.74,644.69v47.69c0,24.03-12.31,37.81-35.15,37.81h-11.98c-11.75,0-21.4-3.17-27.72-10.85l12.86-17.08
				c3.77,4.27,8.32,6.46,14.86,6.46h11.98c9.2,0,14.42-5.73,14.42-16.34v-26.59h-35.37v-21.1H332.74z"/>
			<path class="st4" d="M453.38,644.69v20.49h-52.56v11.59h46.35v20.25h-46.35v11.59h52.56v20.49h-73.19v-84.4H453.38z"/>
			<path class="st4" d="M508.59,703.35l25.17-58.66h23.18l-37.59,84.4h-21.51l-37.7-84.4h23.4L508.59,703.35z"/>
			<path class="st4" d="M639.1,644.69v20.49h-52.56v11.59h46.35v20.25h-46.35v11.59h52.56v20.49h-73.19v-84.4H639.1z"/>
			<path class="st4" d="M720.05,644.69h20.4v84.4h-18.63l-48.46-49.52v49.52h-20.51v-84.4h18.74l48.46,49.64V644.69z"/>
			<path class="st4" d="M832.15,644.69v21.47H802.1v62.93h-20.74v-62.93h-30.05v-21.47H832.15z"/>
			<path class="st4" d="M905.89,669.57c-4.77-4.88-9.31-6.22-16.63-6.22h-18.18c-6.54,0-10.53,1.83-10.53,5.61
				c0,2.8,1.55,4.39,8.87,5.73l29.72,2.93c17.08,2.8,21.84,14.76,21.84,26.83c0,15.61-11.42,25.73-30.38,25.73h-18.63
				c-17.41,0-29.05-6.1-34.6-17.68l17.63-12.32c4.43,8.29,9.76,10.37,17.3,10.37h18.63c6.54,0,9.98-2.32,9.98-6.59
				c0-4.15-2.88-5.73-8.09-6.83l-31.71-3.78c-15.19-2.68-20.63-12.56-20.63-23.66c0-16.46,11.53-26.1,31.49-26.1h17.85
				c13.75,0,23.84,4.02,30.05,11.59L905.89,669.57z"/>
		</g>
	</g>
</g>
</svg>
