<?xml version="1.0" encoding="utf-8"?>
<!-- Generator: Adobe Illustrator 25.2.3, SVG Export Plug-In . SVG Version: 6.00 Build 0)  -->
<svg version="1.1" id="Layer_1" xmlns="http://www.w3.org/2000/svg" xmlns:xlink="http://www.w3.org/1999/xlink" x="0px" y="0px"
	 viewBox="0 0 1000 1000" style="enable-background:new 0 0 1000 1000;" xml:space="preserve">
<style type="text/css">
	.st0{display:none;}
	.st1{display:inline;}
	.st2{fill:#1D1D1B;}
	.st3{fill:#630826;}
	.st4{fill:#BA7E36;}
	.st5{fill:url(#);}
</style>
<g class="st0">
	<g class="st1">
		<rect x="57.1" y="402.77" class="st2" width="851.66" height="0.75"/>
	</g>
	<g class="st1">
		<rect x="57.1" y="443.76" class="st2" width="851.66" height="0.75"/>
	</g>
	<g class="st1">
		<rect x="57.1" y="423.26" class="st2" width="851.66" height="0.75"/>
	</g>
	<g class="st1">
		<rect x="57.1" y="566.74" class="st2" width="851.66" height="0.75"/>
	</g>
	<g class="st1">
		<rect x="57.1" y="546.25" class="st2" width="851.66" height="0.75"/>
	</g>
	<g class="st1">
		<rect x="57.1" y="525.75" class="st2" width="851.66" height="0.75"/>
	</g>
	<g class="st1">
		<rect x="57.1" y="505.25" class="st2" width="851.66" height="0.75"/>
	</g>
	<g class="st1">
		<rect x="57.1" y="484.75" class="st2" width="851.66" height="0.75"/>
	</g>
	<g class="st1">
		<rect x="57.1" y="464.26" class="st2" width="851.66" height="0.75"/>
	</g>
</g>
<g class="st0">
	<g class="st1">
		<rect x="334.22" y="28.8" class="st2" width="0.75" height="851.66"/>
	</g>
	<g class="st1">
		<rect x="293.23" y="28.8" class="st2" width="0.75" height="851.66"/>
	</g>
	<g class="st1">
		<rect x="313.72" y="28.8" class="st2" width="0.75" height="851.66"/>
	</g>
	<g class="st1">
		<rect x="170.24" y="28.8" class="st2" width="0.75" height="851.66"/>
	</g>
	<g class="st1">
		<rect x="190.74" y="28.8" class="st2" width="0.75" height="851.66"/>
	</g>
	<g class="st1">
		<rect x="211.24" y="28.8" class="st2" width="0.75" height="851.66"/>
	</g>
	<g class="st1">
		<rect x="231.73" y="28.8" class="st2" width="0.75" height="851.66"/>
	</g>
	<g class="st1">
		<rect x="252.23" y="28.8" class="st2" width="0.75" height="851.66"/>
	</g>
	<g class="st1">
		<rect x="272.73" y="28.8" class="st2" width="0.75" height="851.66"/>
	</g>
</g>
<g class="st0">
	<g class="st1">
		<rect x="498.35" y="28.8" class="st2" width="0.75" height="851.66"/>
	</g>
	<g class="st1">
		<rect x="457.36" y="28.8" class="st2" width="0.75" height="851.66"/>
	</g>
	<g class="st1">
		<rect x="477.85" y="28.8" class="st2" width="0.75" height="851.66"/>
	</g>
	<g class="st1">
		<rect x="334.37" y="28.8" class="st2" width="0.75" height="851.66"/>
	</g>
	<g class="st1">
		<rect x="354.87" y="28.8" class="st2" width="0.75" height="851.66"/>
	</g>
	<g class="st1">
		<rect x="375.37" y="28.8" class="st2" width="0.75" height="851.66"/>
	</g>
	<g class="st1">
		<rect x="395.86" y="28.8" class="st2" width="0.75" height="851.66"/>
	</g>
	<g class="st1">
		<rect x="416.36" y="28.8" class="st2" width="0.75" height="851.66"/>
	</g>
	<g class="st1">
		<rect x="436.86" y="28.8" class="st2" width="0.75" height="851.66"/>
	</g>
</g>
<g class="st0">
	<g class="st1">
		<path class="st2" d="M1000.12,1000.12H-0.12V-0.12h1000.25V1000.12z M0.12,999.88h999.75V0.12H0.12V999.88z"/>
	</g>
	<g class="st1">
		<rect y="980.27" class="st2" width="1000" height="0.25"/>
	</g>
	<g class="st1">
		<rect y="960.66" class="st2" width="1000" height="0.25"/>
	</g>
	<g class="st1">
		<rect y="941.05" class="st2" width="1000" height="0.25"/>
	</g>
	<g class="st1">
		<rect y="921.44" class="st2" width="1000" height="0.25"/>
	</g>
	<g class="st1">
		<rect y="901.84" class="st2" width="1000" height="0.25"/>
	</g>
	<g class="st1">
		<rect y="882.23" class="st2" width="1000" height="0.25"/>
	</g>
	<g class="st1">
		<rect y="862.62" class="st2" width="1000" height="0.25"/>
	</g>
	<g class="st1">
		<rect y="843.01" class="st2" width="1000" height="0.25"/>
	</g>
	<g class="st1">
		<rect y="823.4" class="st2" width="1000" height="0.25"/>
	</g>
	<g class="st1">
		<rect y="803.8" class="st2" width="1000" height="0.25"/>
	</g>
	<g class="st1">
		<rect y="784.19" class="st2" width="1000" height="0.25"/>
	</g>
	<g class="st1">
		<rect y="764.58" class="st2" width="1000" height="0.25"/>
	</g>
	<g class="st1">
		<rect y="744.97" class="st2" width="1000" height="0.25"/>
	</g>
	<g class="st1">
		<rect y="725.37" class="st2" width="1000" height="0.25"/>
	</g>
	<g class="st1">
		<rect y="705.76" class="st2" width="1000" height="0.25"/>
	</g>
	<g class="st1">
		<rect y="686.15" class="st2" width="1000" height="0.25"/>
	</g>
	<g class="st1">
		<rect y="666.54" class="st2" width="1000" height="0.25"/>
	</g>
	<g class="st1">
		<rect y="646.93" class="st2" width="1000" height="0.25"/>
	</g>
	<g class="st1">
		<rect y="627.33" class="st2" width="1000" height="0.25"/>
	</g>
	<g class="st1">
		<rect y="607.72" class="st2" width="1000" height="0.25"/>
	</g>
	<g class="st1">
		<rect y="588.11" class="st2" width="1000" height="0.25"/>
	</g>
	<g class="st1">
		<rect y="568.5" class="st2" width="1000" height="0.25"/>
	</g>
	<g class="st1">
		<rect y="548.89" class="st2" width="1000" height="0.25"/>
	</g>
	<g class="st1">
		<rect y="529.29" class="st2" width="1000" height="0.25"/>
	</g>
	<g class="st1">
		<rect y="509.68" class="st2" width="1000" height="0.25"/>
	</g>
	<g class="st1">
		<rect y="490.07" class="st2" width="1000" height="0.25"/>
	</g>
	<g class="st1">
		<rect y="470.46" class="st2" width="1000" height="0.25"/>
	</g>
	<g class="st1">
		<rect y="450.86" class="st2" width="1000" height="0.25"/>
	</g>
	<g class="st1">
		<rect y="431.25" class="st2" width="1000" height="0.25"/>
	</g>
	<g class="st1">
		<rect y="411.64" class="st2" width="1000" height="0.25"/>
	</g>
	<g class="st1">
		<rect y="392.03" class="st2" width="1000" height="0.25"/>
	</g>
	<g class="st1">
		<rect y="372.42" class="st2" width="1000" height="0.25"/>
	</g>
	<g class="st1">
		<rect y="352.82" class="st2" width="1000" height="0.25"/>
	</g>
	<g class="st1">
		<rect y="333.21" class="st2" width="1000" height="0.25"/>
	</g>
	<g class="st1">
		<rect y="313.6" class="st2" width="1000" height="0.25"/>
	</g>
	<g class="st1">
		<rect y="293.99" class="st2" width="1000" height="0.25"/>
	</g>
	<g class="st1">
		<rect y="274.38" class="st2" width="1000" height="0.25"/>
	</g>
	<g class="st1">
		<rect y="254.78" class="st2" width="1000" height="0.25"/>
	</g>
	<g class="st1">
		<rect y="235.17" class="st2" width="1000" height="0.25"/>
	</g>
	<g class="st1">
		<rect y="215.56" class="st2" width="1000" height="0.25"/>
	</g>
	<g class="st1">
		<rect y="195.95" class="st2" width="1000" height="0.25"/>
	</g>
	<g class="st1">
		<rect y="176.35" class="st2" width="1000" height="0.25"/>
	</g>
	<g class="st1">
		<rect y="156.74" class="st2" width="1000" height="0.25"/>
	</g>
	<g class="st1">
		<rect y="137.13" class="st2" width="1000" height="0.25"/>
	</g>
	<g class="st1">
		<rect y="117.52" class="st2" width="1000" height="0.25"/>
	</g>
	<g class="st1">
		<rect y="97.91" class="st2" width="1000" height="0.25"/>
	</g>
	<g class="st1">
		<rect y="78.31" class="st2" width="1000" height="0.25"/>
	</g>
	<g class="st1">
		<rect y="58.7" class="st2" width="1000" height="0.25"/>
	</g>
	<g class="st1">
		<rect y="39.09" class="st2" width="1000" height="0.25"/>
	</g>
	<g class="st1">
		<rect y="19.48" class="st2" width="1000" height="0.25"/>
	</g>
	<g class="st1">
		<rect x="980.27" class="st2" width="0.25" height="1000"/>
	</g>
	<g class="st1">
		<rect x="960.66" class="st2" width="0.25" height="1000"/>
	</g>
	<g class="st1">
		<rect x="941.05" class="st2" width="0.25" height="1000"/>
	</g>
	<g class="st1">
		<rect x="921.44" class="st2" width="0.25" height="1000"/>
	</g>
	<g class="st1">
		<rect x="901.84" class="st2" width="0.25" height="1000"/>
	</g>
	<g class="st1">
		<rect x="882.23" class="st2" width="0.25" height="1000"/>
	</g>
	<g class="st1">
		<rect x="862.62" class="st2" width="0.25" height="1000"/>
	</g>
	<g class="st1">
		<rect x="843.01" class="st2" width="0.25" height="1000"/>
	</g>
	<g class="st1">
		<rect x="823.4" class="st2" width="0.25" height="1000"/>
	</g>
	<g class="st1">
		<rect x="803.8" class="st2" width="0.25" height="1000"/>
	</g>
	<g class="st1">
		<rect x="784.19" class="st2" width="0.25" height="1000"/>
	</g>
	<g class="st1">
		<rect x="764.58" class="st2" width="0.25" height="1000"/>
	</g>
	<g class="st1">
		<rect x="744.97" class="st2" width="0.25" height="1000"/>
	</g>
	<g class="st1">
		<rect x="725.37" class="st2" width="0.25" height="1000"/>
	</g>
	<g class="st1">
		<rect x="705.76" class="st2" width="0.25" height="1000"/>
	</g>
	<g class="st1">
		<rect x="686.15" class="st2" width="0.25" height="1000"/>
	</g>
	<g class="st1">
		<rect x="666.54" class="st2" width="0.25" height="1000"/>
	</g>
	<g class="st1">
		<rect x="646.93" class="st2" width="0.25" height="1000"/>
	</g>
	<g class="st1">
		<rect x="627.33" class="st2" width="0.25" height="1000"/>
	</g>
	<g class="st1">
		<rect x="607.72" class="st2" width="0.25" height="1000"/>
	</g>
	<g class="st1">
		<rect x="588.11" class="st2" width="0.25" height="1000"/>
	</g>
	<g class="st1">
		<rect x="568.5" class="st2" width="0.25" height="1000"/>
	</g>
	<g class="st1">
		<rect x="548.89" class="st2" width="0.25" height="1000"/>
	</g>
	<g class="st1">
		<rect x="529.29" class="st2" width="0.25" height="1000"/>
	</g>
	<g class="st1">
		<rect x="509.68" class="st2" width="0.25" height="1000"/>
	</g>
	<g class="st1">
		<rect x="490.07" class="st2" width="0.25" height="1000"/>
	</g>
	<g class="st1">
		<rect x="470.46" class="st2" width="0.25" height="1000"/>
	</g>
	<g class="st1">
		<rect x="450.86" class="st2" width="0.25" height="1000"/>
	</g>
	<g class="st1">
		<rect x="431.25" class="st2" width="0.25" height="1000"/>
	</g>
	<g class="st1">
		<rect x="411.64" class="st2" width="0.25" height="1000"/>
	</g>
	<g class="st1">
		<rect x="392.03" class="st2" width="0.25" height="1000"/>
	</g>
	<g class="st1">
		<rect x="372.42" class="st2" width="0.25" height="1000"/>
	</g>
	<g class="st1">
		<rect x="352.82" class="st2" width="0.25" height="1000"/>
	</g>
	<g class="st1">
		<rect x="333.21" class="st2" width="0.25" height="1000"/>
	</g>
	<g class="st1">
		<rect x="313.6" class="st2" width="0.25" height="1000"/>
	</g>
	<g class="st1">
		<rect x="293.99" class="st2" width="0.25" height="1000"/>
	</g>
	<g class="st1">
		<rect x="274.38" class="st2" width="0.25" height="1000"/>
	</g>
	<g class="st1">
		<rect x="254.78" class="st2" width="0.25" height="1000"/>
	</g>
	<g class="st1">
		<rect x="235.17" class="st2" width="0.25" height="1000"/>
	</g>
	<g class="st1">
		<rect x="215.56" class="st2" width="0.25" height="1000"/>
	</g>
	<g class="st1">
		<rect x="195.95" class="st2" width="0.25" height="1000"/>
	</g>
	<g class="st1">
		<rect x="176.35" class="st2" width="0.25" height="1000"/>
	</g>
	<g class="st1">
		<rect x="156.74" class="st2" width="0.25" height="1000"/>
	</g>
	<g class="st1">
		<rect x="137.13" class="st2" width="0.25" height="1000"/>
	</g>
	<g class="st1">
		<rect x="117.52" class="st2" width="0.25" height="1000"/>
	</g>
	<g class="st1">
		<rect x="97.91" class="st2" width="0.25" height="1000"/>
	</g>
	<g class="st1">
		<rect x="78.31" class="st2" width="0.25" height="1000"/>
	</g>
	<g class="st1">
		<rect x="58.7" class="st2" width="0.25" height="1000"/>
	</g>
	<g class="st1">
		<rect x="39.09" class="st2" width="0.25" height="1000"/>
	</g>
	<g class="st1">
		<rect x="19.48" class="st2" width="0.25" height="1000"/>
	</g>
</g>
<g>
	<g>
		<g>
			<g>
				<g>
					<g>
						<path class="st3" d="M141.45,532.01c3.34,0.35,6.53,0.71,9.71,1.07L141.45,532.01z"/>
						<polygon class="st4" points="159.51,525.33 175.58,525.31 171.52,532.49 167.44,539.71 163.44,532.45 						"/>
						<path class="st3" d="M153.2,533.3l4.65,0.51l-0.33-0.02C156.07,533.63,154.63,533.46,153.2,533.3z"/>
						<path class="st3" d="M140.98,539.37l-0.74-2.59l-1.46-5.06l1.23,0.13l1.45,0.16l9.71,1.07l1.73,0.19l0.31,0.03
							c1.43,0.16,2.87,0.33,4.33,0.5l0.33,0.02l0.94,0.1l0.13,0.23l2.75,4.81l5.78,10.15l5.76-10.17l2.74-4.82l0.13-0.23l0.94-0.1
							l0.33-0.02c1.45-0.17,2.89-0.34,4.32-0.51l0.31-0.03l1.73-0.19l9.7-1.09l1.45-0.16l1.23-0.14l-1.45,5.07l-0.74,2.59
							c-0.44,1.34,0.02,2.69,1.38,3.59l15.76,13.06l10.04,8.32L215.7,567c-2.24,0.91-1.79,2.26-0.88,5.41l4.16,14.82l-14.85-3.06
							c-1.06,0.01-2.28,0.37-2.62,1.48c-0.74,2.38-1.49,4.75-2.25,7.11l-0.02-0.03l-0.01,0.02l-13.6-14.69l-6.25-6.74l-11.9,0.09
							l-11.9-0.06l-6.23,6.76l-13.57,14.72l-0.01-0.02l-0.02,0.03c-0.77-2.36-1.52-4.73-2.27-7.1c-0.34-1.11-1.57-1.47-2.63-1.48
							l-14.84,3.1l4.12-14.83c0.9-3.15,1.35-4.5-0.89-5.4l-5.39-2.71l10.01-8.34l15.72-13.11
							C140.96,542.06,141.41,540.71,140.98,539.37z"/>
						<path class="st3" d="M193.3,531.94c-3.34,0.36-6.53,0.72-9.7,1.09L193.3,531.94z"/>
						<path class="st3" d="M181.56,533.26l-4.65,0.52l0.33-0.02C178.69,533.6,180.12,533.43,181.56,533.26z"/>
					</g>
					<g>
						<circle class="st3" cx="167.54" cy="623.49" r="2.16"/>
						<circle class="st3" cx="138.38" cy="605.72" r="2.16"/>
						<polygon class="st4" points="139.9,604.19 156.45,575.94 167.48,576 178.52,575.91 195.14,604.12 181.09,600.35 
							167.54,621.33 153.94,600.38 						"/>
						<circle class="st3" cx="196.67" cy="605.64" r="2.16"/>
					</g>
				</g>
			</g>
			<g>
				<g>
					<g>
						<path class="st3" d="M135.38,474.06c-0.35,3.34-0.71,6.53-1.07,9.71L135.38,474.06z"/>
						<polygon class="st4" points="142.06,492.12 142.08,508.2 134.9,504.13 127.68,500.06 134.94,496.05 						"/>
						<path class="st3" d="M134.09,485.81l-0.51,4.65l0.02-0.33C133.76,488.68,133.93,487.25,134.09,485.81z"/>
						<path class="st3" d="M128.02,473.59l2.59-0.74l5.06-1.46l-0.13,1.23l-0.16,1.45l-1.07,9.71l-0.19,1.73l-0.03,0.31
							c-0.17,1.43-0.33,2.87-0.5,4.33l-0.02,0.33l-0.1,0.94l-0.23,0.13l-4.81,2.75l-10.15,5.78l10.17,5.76l4.82,2.74l0.23,0.13
							l0.1,0.94l0.02,0.33c0.17,1.45,0.34,2.89,0.51,4.32l0.03,0.31l0.19,1.73l1.09,9.7l0.16,1.45l0.14,1.23l-5.07-1.45l-2.59-0.74
							c-1.34-0.44-2.69,0.02-3.59,1.38l-13.06,15.76l-8.32,10.04l-2.73-5.38c-0.91-2.24-2.26-1.79-5.41-0.88l-14.82,4.16l3.06-14.85
							c-0.01-1.06-0.37-2.28-1.48-2.62c-2.38-0.74-4.75-1.49-7.11-2.25l0.03-0.02l-0.02-0.01l14.69-13.6l6.74-6.25l-0.09-11.9
							l0.06-11.9l-6.76-6.23L74.57,468.4l0.02-0.01l-0.03-0.02c2.36-0.77,4.73-1.52,7.1-2.27c1.11-0.34,1.47-1.57,1.48-2.63
							l-3.1-14.84l14.83,4.12c3.15,0.9,4.5,1.35,5.4-0.89l2.71-5.39l8.34,10.01l13.11,15.72
							C125.32,473.58,126.68,474.03,128.02,473.59z"/>
						<path class="st3" d="M135.45,525.92c-0.36-3.34-0.72-6.53-1.09-9.7L135.45,525.92z"/>
						<path class="st3" d="M134.13,514.17l-0.52-4.65l0.02,0.33C133.79,511.3,133.96,512.74,134.13,514.17z"/>
					</g>
					<g>
						<circle class="st3" cx="43.9" cy="500.16" r="2.16"/>
						<circle class="st3" cx="61.67" cy="470.99" r="2.16"/>
						<polygon class="st4" points="63.2,472.51 91.45,489.06 91.39,500.09 91.48,511.13 63.27,527.75 67.04,513.7 46.05,500.15 
							67.01,486.55 						"/>
						<circle class="st3" cx="61.75" cy="529.28" r="2.16"/>
					</g>
				</g>
			</g>
			<g>
				<g>
					<g>
						<path class="st3" d="M193.32,467.99c-3.34-0.35-6.53-0.71-9.71-1.07L193.32,467.99z"/>
						<polygon class="st4" points="175.26,474.67 159.19,474.69 163.26,467.51 167.33,460.29 171.34,467.55 						"/>
						<path class="st3" d="M181.57,466.7l-4.65-0.51l0.33,0.02C178.7,466.37,180.14,466.54,181.57,466.7z"/>
						<path class="st3" d="M193.8,460.63l0.74,2.59l1.46,5.06l-1.23-0.13l-1.45-0.16l-9.71-1.07l-1.73-0.19l-0.31-0.03
							c-1.43-0.17-2.87-0.33-4.33-0.5l-0.33-0.02l-0.94-0.1l-0.13-0.23l-2.75-4.81l-5.78-10.15l-5.76,10.17l-2.74,4.82l-0.13,0.23
							l-0.94,0.1l-0.33,0.02c-1.45,0.17-2.89,0.34-4.32,0.51l-0.31,0.03l-1.73,0.19l-9.7,1.09l-1.45,0.16l-1.23,0.14l1.45-5.07
							l0.74-2.59c0.44-1.34-0.02-2.69-1.38-3.59l-15.76-13.06l-10.04-8.32l5.38-2.73c2.24-0.91,1.79-2.26,0.88-5.41l-4.16-14.82
							l14.85,3.06c1.06-0.01,2.28-0.37,2.62-1.48c0.74-2.38,1.49-4.75,2.25-7.11l0.02,0.03l0.01-0.02l13.6,14.69l6.25,6.74
							l11.9-0.09l11.9,0.06l6.23-6.76l13.57-14.72l0.01,0.02l0.02-0.03c0.77,2.36,1.52,4.73,2.27,7.1c0.34,1.11,1.57,1.47,2.63,1.48
							l14.84-3.1l-4.12,14.83c-0.9,3.15-1.35,4.5,0.89,5.4l5.39,2.71l-10.01,8.34l-15.72,13.11
							C193.81,457.94,193.36,459.29,193.8,460.63z"/>
						<path class="st3" d="M141.47,468.06c3.34-0.36,6.53-0.72,9.7-1.09L141.47,468.06z"/>
						<path class="st3" d="M153.22,466.74l4.65-0.52l-0.33,0.02C156.09,466.4,154.65,466.57,153.22,466.74z"/>
					</g>
					<g>
						<circle class="st3" cx="167.23" cy="376.51" r="2.16"/>
						<circle class="st3" cx="196.4" cy="394.28" r="2.16"/>
						<polygon class="st4" points="194.88,395.81 178.33,424.06 167.29,424 156.26,424.09 139.63,395.88 153.69,399.65 
							167.23,378.67 180.84,399.62 						"/>
						<circle class="st3" cx="138.11" cy="394.36" r="2.16"/>
					</g>
				</g>
			</g>
			<g>
				<g>
					<g>
						<path class="st3" d="M199.4,525.94c0.35-3.34,0.71-6.53,1.07-9.71L199.4,525.94z"/>
						<polygon class="st4" points="192.71,507.88 192.69,491.8 199.88,495.87 207.1,499.94 199.84,503.95 						"/>
						<path class="st3" d="M200.68,514.19l0.51-4.65l-0.02,0.33C201.01,511.32,200.85,512.75,200.68,514.19z"/>
						<path class="st3" d="M206.76,526.41l-2.59,0.74l-5.06,1.46l0.13-1.23l0.16-1.45l1.07-9.71l0.19-1.73l0.03-0.31
							c0.17-1.43,0.33-2.87,0.5-4.33l0.02-0.33l0.1-0.94l0.23-0.13l4.81-2.75l10.15-5.78l-10.17-5.76l-4.82-2.74l-0.23-0.13
							l-0.1-0.94l-0.02-0.33c-0.17-1.45-0.34-2.89-0.51-4.32l-0.03-0.31l-0.19-1.73l-1.09-9.7l-0.16-1.45l-0.14-1.23l5.07,1.45
							l2.59,0.74c1.34,0.44,2.69-0.02,3.59-1.38l13.06-15.76l8.32-10.04l2.73,5.38c0.91,2.24,2.26,1.79,5.41,0.88l14.82-4.16
							l-3.06,14.85c0.01,1.06,0.37,2.28,1.48,2.62c2.38,0.74,4.75,1.49,7.11,2.25l-0.03,0.02l0.02,0.01l-14.69,13.6l-6.74,6.25
							l0.09,11.9l-0.06,11.9l6.76,6.23l14.72,13.57l-0.02,0.01l0.03,0.02c-2.36,0.77-4.73,1.52-7.1,2.27
							c-1.11,0.34-1.47,1.57-1.48,2.63l3.1,14.84l-14.83-4.12c-3.15-0.9-4.5-1.35-5.4,0.89l-2.71,5.39l-8.34-10.01l-13.11-15.72
							C209.45,526.42,208.1,525.97,206.76,526.41z"/>
						<path class="st3" d="M199.33,474.08c0.36,3.34,0.72,6.53,1.09,9.7L199.33,474.08z"/>
						<path class="st3" d="M200.65,485.83l0.52,4.65l-0.02-0.33C200.98,488.7,200.82,487.26,200.65,485.83z"/>
					</g>
					<g>
						<circle class="st3" cx="290.88" cy="499.84" r="2.16"/>
						<circle class="st3" cx="273.11" cy="529.01" r="2.16"/>
						<polygon class="st4" points="271.58,527.49 243.33,510.94 243.39,499.9 243.3,488.87 271.51,472.25 267.73,486.3 
							288.72,499.85 267.77,513.45 						"/>
						<circle class="st3" cx="273.03" cy="470.72" r="2.16"/>
					</g>
				</g>
			</g>
		</g>
		<circle class="st3" cx="167.1" cy="499.98" r="16.63"/>
	</g>
	<g>
		<g>
			<path class="st3" d="M416.13,562.56c-0.97-0.52-1.71-1.23-2.23-2.14c-0.52-0.91-0.78-2.3-0.78-4.17c0-1.36,0.37-2.8,1.12-4.32
				c0.74-1.52,1.62-3.01,2.62-4.46c1-1.46,1.86-2.77,2.57-3.93c2.65-4.4,5.37-8.83,8.15-13.3c2.78-4.46,5.08-8.74,6.89-12.81
				c-0.52,0.13-1.02,0.21-1.5,0.24c-0.49,0.03-0.99,0.08-1.5,0.15c-0.26,0.07-0.53,0.1-0.83,0.1c-0.29,0-0.57,0-0.82,0
				c-1.36,0-2.33-0.23-2.91-0.68c-0.58-0.45-0.87-1-0.87-1.65c0-0.26,0.05-0.5,0.15-0.73c0.1-0.23,0.18-0.47,0.24-0.73
				c1.62-0.13,3.28-0.35,5-0.68c1.71-0.32,3.41-0.71,5.1-1.16c0.13-0.45,0.27-0.92,0.44-1.41c0.16-0.48,0.27-0.95,0.34-1.41
				c0.78,0,1.36,0.21,1.75,0.63c0.39,0.42,0.68,0.89,0.87,1.41c2.07-0.52,4.08-0.97,6.02-1.36c1.94-0.39,3.75-0.58,5.43-0.58
				c3.49,0,5.98,0.96,7.47,2.86c1.49,1.91,2.23,4.19,2.23,6.84c0,2.39-0.79,5.03-2.38,7.91c-1.59,2.88-3.7,5.65-6.36,8.3
				c-2.65,2.65-5.61,4.82-8.88,6.5c-3.27,1.68-6.55,2.52-9.85,2.52c-1.3,0-2.61-0.16-3.93-0.48c-1.33-0.32-2.61-0.84-3.83-1.55
				c-0.84,1.49-1.7,3.03-2.57,4.61c-0.87,1.59-1.7,3.15-2.47,4.71c-1.23,2.33-2.28,4.48-3.15,6.45
				C416.77,560.22,416.26,561.65,416.13,562.56z M426.81,540.82c2.13,0.13,4.58-0.21,7.33-1.02c2.75-0.81,5.55-1.96,8.4-3.45
				c2.85-1.49,5.48-3.23,7.91-5.24c2.43-2,4.38-4.12,5.87-6.36c1.49-2.23,2.23-4.45,2.23-6.65c0-2.52-2.27-3.78-6.79-3.78
				c-1.88,0-3.82,0.19-5.82,0.58c-2.01,0.39-3.98,0.81-5.92,1.26c-0.26,1.23-0.87,2.86-1.84,4.9c-0.97,2.04-2.09,4.19-3.35,6.45
				c-1.26,2.27-2.47,4.38-3.64,6.36c-1.16,1.97-2.1,3.54-2.81,4.71L426.81,540.82z"/>
			<path class="st3" d="M460.39,562.85c-2.39,0-4.3-0.7-5.73-2.09c-1.42-1.39-2.14-3.35-2.14-5.87c0-1.94,0.37-3.98,1.12-6.11
				c0.74-2.14,1.47-3.82,2.18-5.05c1.49-2.72,3.28-5.21,5.39-7.47c2.1-2.26,4.27-4.09,6.5-5.48c2.23-1.39,4.29-2.09,6.16-2.09
				c1.75,0,3.25,0.49,4.51,1.46c1.26,0.97,1.89,2.27,1.89,3.88c0,0.65-0.16,1.39-0.49,2.23c-0.32,0.84-0.84,1.71-1.55,2.62
				c-2.59,3.3-5.45,5.87-8.59,7.72c-3.14,1.84-6.71,3.22-10.72,4.12c-0.26,0.84-0.49,1.67-0.68,2.48c-0.19,0.81-0.36,1.57-0.49,2.28
				c-0.07,0.32-0.11,0.63-0.15,0.92c-0.03,0.29-0.05,0.6-0.05,0.92c0,1.29,0.31,2.22,0.92,2.77c0.61,0.55,1.37,0.82,2.28,0.82
				c1.42,0,2.94-0.37,4.56-1.12c1.62-0.74,3.14-1.6,4.56-2.57c1.42-0.97,2.49-1.75,3.2-2.33c0.71-0.65,1.41-1.31,2.09-1.99
				c0.68-0.68,1.44-1.44,2.28-2.28c0.65-0.71,1.26-1.41,1.84-2.09c0.58-0.68,1.13-1.37,1.65-2.09c0.19-0.19,0.35-0.29,0.49-0.29
				c0.39,0,0.58,0.29,0.58,0.87c0,0.32-0.13,0.62-0.39,0.87c-1.16,1.42-2.33,2.83-3.49,4.22c-1.16,1.39-2.36,2.73-3.59,4.03
				c-1.42,1.49-3.38,2.98-5.87,4.46C466.2,562.11,463.43,562.85,460.39,562.85z M459.52,549.46c1.68-0.71,3.64-1.75,5.87-3.11
				c2.23-1.36,4.4-2.99,6.5-4.9c2.1-1.91,3.83-3.96,5.19-6.16c0.45-0.71,0.68-1.36,0.68-1.94c0-0.91-0.52-1.36-1.55-1.36
				c-0.71,0-1.59,0.26-2.62,0.78c-3.24,1.75-6.02,4.11-8.35,7.09C462.91,542.83,461,546.03,459.52,549.46z"/>
			<path class="st3" d="M493.68,561.88c-1.23,0-2.27-0.42-3.11-1.26c-0.84-0.84-1.26-2.04-1.26-3.59c0-0.71,0.06-1.37,0.19-1.99
				c0.13-0.61,0.29-1.15,0.49-1.6c0.32-0.97,0.94-2.23,1.84-3.79c0.91-1.55,1.91-3.19,3.01-4.9c1.1-1.71,2.04-3.25,2.81-4.61
				c0.97-1.68,1.46-3.14,1.46-4.37c0-1.36-0.58-2.43-1.75-3.2c-0.45-0.32-0.91-0.63-1.36-0.92c-0.45-0.29-0.84-0.57-1.16-0.83
				l-2.72,4.37c-1.55,2.14-3.17,4.34-4.85,6.6c-1.68,2.27-3.3,4.35-4.85,6.26c-1.55,1.91-2.88,3.51-3.98,4.8
				c-0.19,0.19-0.39,0.29-0.58,0.29c-0.32,0-0.58-0.16-0.78-0.49c-0.19-0.32-0.16-0.61,0.1-0.87c2.52-2.85,4.95-5.76,7.28-8.73
				c2.33-2.98,4.5-6.15,6.5-9.51l2.33-3.98c-0.26-0.19-0.66-0.61-1.21-1.26c-0.55-0.65-1.07-1.37-1.55-2.18
				c-0.49-0.81-0.73-1.5-0.73-2.09c0-0.52,0.18-0.92,0.53-1.21c0.35-0.29,0.99-0.44,1.89-0.44c2.2,0,3.27,2.36,3.2,7.09
				c0.91,0.71,1.91,1.26,3.01,1.65c1.1,0.39,2.15,0.76,3.15,1.12c1,0.36,1.83,0.86,2.47,1.5c0.65,0.65,0.97,1.62,0.97,2.91
				c0,1.1-0.31,2.38-0.92,3.83c-0.62,1.46-1.34,2.73-2.18,3.83c-0.71,0.97-1.54,2.14-2.47,3.49c-0.94,1.36-1.83,2.72-2.67,4.08
				c-0.84,1.36-1.46,2.59-1.84,3.69c-0.32,0.84-0.49,1.46-0.49,1.84c0,0.84,0.39,1.26,1.16,1.26c0.71,0,1.58-0.29,2.62-0.87
				c1.36-0.71,2.77-1.73,4.22-3.06c1.46-1.33,2.8-2.7,4.03-4.12c0.71-0.71,1.36-1.41,1.94-2.09c0.58-0.68,1.13-1.37,1.65-2.09
				c0.19-0.19,0.35-0.29,0.49-0.29c0.39,0,0.58,0.29,0.58,0.87c0,0.32-0.13,0.62-0.39,0.87c-1.36,1.62-2.75,3.32-4.17,5.1
				c-1.42,1.78-2.94,3.38-4.56,4.8c-0.97,0.78-2.23,1.65-3.79,2.62C496.69,561.4,495.17,561.88,493.68,561.88z"/>
			<path class="st3" d="M505.32,595.27c-1.81,0-3.07-0.65-3.79-1.94c-0.71-1.29-1.07-2.98-1.07-5.05c0-1.29,0.11-2.72,0.34-4.27
				c0.23-1.55,0.53-3.14,0.92-4.76c1.75-7.25,4.26-14.36,7.52-21.35c3.27-6.99,6.58-13.98,9.95-20.96h-1.84
				c-0.71,0-1.07-0.19-1.07-0.58c0-0.26,0.18-0.5,0.53-0.73c0.35-0.23,0.86-0.34,1.5-0.34h1.46c1.68-3.62,3.33-6.97,4.95-10.04
				c1.62-3.07,3.43-6.39,5.43-9.95c1.49-2.65,3.2-4.76,5.14-6.31c1.94-1.55,3.85-2.33,5.73-2.33c0.19,0,0.4,0,0.63,0
				c0.23,0,0.44,0.03,0.63,0.1c-2.14,3.04-4.06,5.94-5.77,8.69c-1.71,2.75-3.41,5.69-5.1,8.83c-1.68,3.14-3.62,6.81-5.82,11.02
				h11.84c0.32,0,0.49,0.16,0.49,0.49c0,0.26-0.11,0.52-0.34,0.78c-0.23,0.26-0.5,0.39-0.82,0.39h-12.03l-1.75,3.59
				c0.45,1.3,0.78,2.83,0.97,4.61c0.19,1.78,0.29,3.61,0.29,5.48c0,2.98-0.18,5.99-0.53,9.03c-0.36,3.04-0.73,5.56-1.12,7.57
				c-0.97,4.98-2.25,9.61-3.83,13.88c-1.59,4.27-3.48,7.7-5.68,10.29C510.89,593.97,508.3,595.27,505.32,595.27z M506.3,593.62
				c1.23,0,2.44-0.7,3.64-2.09c1.2-1.39,2.33-3.09,3.4-5.1c1.07-2.01,1.99-3.98,2.77-5.92c0.78-1.94,1.36-3.43,1.75-4.46
				c0.71-1.94,1.41-4.37,2.09-7.28c0.68-2.91,1.23-6,1.65-9.27c0.42-3.27,0.63-6.39,0.63-9.37c0-2.52-0.19-4.76-0.58-6.7
				c-1.16,2.52-2.51,5.45-4.03,8.78c-1.52,3.33-3.06,6.83-4.61,10.48c-1.55,3.65-2.98,7.25-4.27,10.77
				c-1.29,3.53-2.34,6.76-3.15,9.71c-0.81,2.94-1.21,5.32-1.21,7.13C504.35,592.45,505,593.55,506.3,593.62z"/>
			<path class="st3" d="M541.72,562.85c-2.39,0-4.3-0.7-5.73-2.09c-1.42-1.39-2.14-3.35-2.14-5.87c0-1.94,0.37-3.98,1.12-6.11
				c0.74-2.14,1.47-3.82,2.18-5.05c1.49-2.72,3.28-5.21,5.39-7.47c2.1-2.26,4.27-4.09,6.5-5.48c2.23-1.39,4.29-2.09,6.16-2.09
				c1.75,0,3.25,0.49,4.51,1.46s1.89,2.27,1.89,3.88c0,0.65-0.16,1.39-0.49,2.23c-0.32,0.84-0.84,1.71-1.55,2.62
				c-2.59,3.3-5.45,5.87-8.59,7.72c-3.14,1.84-6.71,3.22-10.72,4.12c-0.26,0.84-0.49,1.67-0.68,2.48c-0.19,0.81-0.36,1.57-0.49,2.28
				c-0.07,0.32-0.11,0.63-0.15,0.92c-0.03,0.29-0.05,0.6-0.05,0.92c0,1.29,0.31,2.22,0.92,2.77c0.61,0.55,1.37,0.82,2.28,0.82
				c1.42,0,2.94-0.37,4.56-1.12c1.62-0.74,3.14-1.6,4.56-2.57c1.42-0.97,2.49-1.75,3.2-2.33c0.71-0.65,1.41-1.31,2.09-1.99
				c0.68-0.68,1.44-1.44,2.28-2.28c0.65-0.71,1.26-1.41,1.84-2.09c0.58-0.68,1.13-1.37,1.65-2.09c0.19-0.19,0.35-0.29,0.49-0.29
				c0.39,0,0.58,0.29,0.58,0.87c0,0.32-0.13,0.62-0.39,0.87c-1.16,1.42-2.33,2.83-3.49,4.22c-1.16,1.39-2.36,2.73-3.59,4.03
				c-1.42,1.49-3.38,2.98-5.87,4.46C547.53,562.11,544.76,562.85,541.72,562.85z M540.85,549.46c1.68-0.71,3.64-1.75,5.87-3.11
				c2.23-1.36,4.4-2.99,6.5-4.9c2.1-1.91,3.83-3.96,5.19-6.16c0.45-0.71,0.68-1.36,0.68-1.94c0-0.91-0.52-1.36-1.55-1.36
				c-0.71,0-1.59,0.26-2.62,0.78c-3.24,1.75-6.02,4.11-8.35,7.09C544.24,542.83,542.33,546.03,540.85,549.46z"/>
			<path class="st3" d="M569.67,562.85c-2.52,0-4.56-0.65-6.11-1.94c-1.55-1.29-2.33-3.33-2.33-6.11c0-1.94,0.31-3.96,0.92-6.07
				c0.61-2.1,1.25-3.77,1.89-5c1.36-2.72,3.01-5.21,4.95-7.47c1.94-2.26,3.99-4.09,6.16-5.48c2.17-1.39,4.19-2.09,6.07-2.09
				c1.88,0,3.33,0.63,4.37,1.89c1.03,1.26,1.55,2.64,1.55,4.12c0,1.29-0.36,2.39-1.07,3.3c-0.91,1.23-1.68,2.1-2.33,2.62
				c-0.65,0.52-1.13,0.78-1.46,0.78c-0.32,0-0.49-0.23-0.49-0.68c0-0.39,0.16-1,0.49-1.84c0.13-0.39,0.39-1.07,0.78-2.04
				c0.39-0.97,0.74-1.94,1.07-2.91c0.32-0.97,0.45-1.62,0.39-1.94c-0.97-0.19-2.35,0.34-4.12,1.6c-1.78,1.26-3.61,2.91-5.48,4.95
				c-1.88,2.04-3.43,4.19-4.66,6.45c-0.26,0.52-0.71,1.49-1.36,2.91c-0.65,1.42-1.23,2.96-1.75,4.61c-0.52,1.65-0.78,3.19-0.78,4.61
				c0,1.1,0.26,2.02,0.78,2.77c0.52,0.75,1.39,1.12,2.62,1.12c1.03,0,2.26-0.26,3.69-0.78c2.46-0.78,4.74-2.07,6.84-3.88
				c2.1-1.81,4.06-3.72,5.87-5.73c0.65-0.71,1.26-1.39,1.84-2.04c0.58-0.65,1.13-1.29,1.65-1.94c0.13-0.13,0.24-0.24,0.34-0.34
				c0.1-0.1,0.18-0.14,0.24-0.14c0.32,0,0.49,0.26,0.49,0.78c0,0.45-0.13,0.84-0.39,1.16c-0.65,0.84-1.33,1.68-2.04,2.52
				c-0.71,0.84-1.42,1.68-2.14,2.52c-2.14,2.39-4.55,4.61-7.23,6.65C576.25,561.83,573.16,562.85,569.67,562.85z"/>
			<path class="st3" d="M593.45,561.69c-1.42,0-2.62-0.42-3.59-1.26c-0.97-0.84-1.46-2.26-1.46-4.27c0-0.52,0.03-1.03,0.1-1.55
				c0.06-0.52,0.16-1.07,0.29-1.65c0.52-2.59,1.58-5.74,3.2-9.46c1.62-3.72,3.69-7.94,6.21-12.67h-3.69c-0.71,0-1.07-0.19-1.07-0.58
				c0-0.19,0.18-0.4,0.53-0.63c0.35-0.23,0.86-0.34,1.5-0.34h3.49c1.1-1.88,1.99-3.35,2.67-4.42c0.68-1.07,1.25-1.89,1.7-2.48
				c1.68-2.14,3.22-3.64,4.61-4.51c1.39-0.87,2.6-1.37,3.64-1.5c1.03-0.13,1.78-0.19,2.23-0.19c-0.91,0.97-1.91,2.23-3.01,3.79
				c-1.1,1.55-2.17,3.15-3.2,4.8c-1.04,1.65-1.91,3.15-2.62,4.51h9.9c0.71,0,1.07,0.16,1.07,0.48c0,0.26-0.19,0.5-0.58,0.73
				c-0.39,0.23-0.91,0.34-1.55,0.34h-9.8c-1.04,1.88-1.96,3.54-2.77,5c-0.81,1.46-1.62,2.99-2.43,4.61
				c-0.81,1.62-1.8,3.62-2.96,6.02c-0.91,2.01-1.57,3.72-1.99,5.14c-0.42,1.42-0.63,2.62-0.63,3.59c0,1.23,0.26,2.1,0.78,2.62
				c0.52,0.52,1.16,0.78,1.94,0.78c0.78,0,1.68-0.26,2.72-0.78c1.42-0.71,2.85-1.75,4.27-3.11c1.42-1.36,2.78-2.75,4.08-4.17
				c0.65-0.71,1.26-1.39,1.84-2.04c0.58-0.65,1.13-1.33,1.65-2.04c0.19-0.19,0.35-0.29,0.49-0.29c0.39,0,0.58,0.26,0.58,0.78
				c0,0.39-0.13,0.71-0.39,0.97c-1.36,1.68-2.78,3.4-4.27,5.14c-1.75,2.01-3.69,3.95-5.82,5.82
				C598.98,560.75,596.42,561.69,593.45,561.69z"/>
			<path class="st3" d="M629.65,562.56c-0.97-0.52-1.71-1.23-2.23-2.14c-0.52-0.91-0.78-2.3-0.78-4.17c0-1.36,0.37-2.8,1.12-4.32
				c0.74-1.52,1.62-3.01,2.62-4.46c1-1.46,1.86-2.77,2.57-3.93c2.65-4.4,5.37-8.83,8.15-13.3c2.78-4.46,5.08-8.74,6.89-12.81
				c-0.52,0.13-1.02,0.21-1.5,0.24c-0.49,0.03-0.99,0.08-1.5,0.15c-0.26,0.07-0.53,0.1-0.83,0.1c-0.29,0-0.57,0-0.82,0
				c-1.36,0-2.33-0.23-2.91-0.68c-0.58-0.45-0.87-1-0.87-1.65c0-0.26,0.05-0.5,0.15-0.73c0.1-0.23,0.18-0.47,0.24-0.73
				c1.62-0.13,3.28-0.35,5-0.68c1.71-0.32,3.41-0.71,5.09-1.16c0.13-0.45,0.27-0.92,0.44-1.41c0.16-0.48,0.27-0.95,0.34-1.41
				c0.78,0,1.36,0.21,1.75,0.63c0.39,0.42,0.68,0.89,0.87,1.41c2.07-0.52,4.08-0.97,6.02-1.36c1.94-0.39,3.75-0.58,5.44-0.58
				c3.49,0,5.98,0.96,7.47,2.86c1.49,1.91,2.23,4.19,2.23,6.84c0,2.39-0.79,5.03-2.38,7.91c-1.59,2.88-3.7,5.65-6.36,8.3
				c-2.65,2.65-5.61,4.82-8.88,6.5c-3.27,1.68-6.55,2.52-9.85,2.52c-1.3,0-2.61-0.16-3.93-0.48c-1.33-0.32-2.61-0.84-3.83-1.55
				c-0.84,1.49-1.7,3.03-2.57,4.61c-0.87,1.59-1.7,3.15-2.47,4.71c-1.23,2.33-2.28,4.48-3.15,6.45
				C630.28,560.22,629.77,561.65,629.65,562.56z M640.32,540.82c2.13,0.13,4.58-0.21,7.33-1.02c2.75-0.81,5.55-1.96,8.4-3.45
				c2.85-1.49,5.48-3.23,7.91-5.24c2.43-2,4.38-4.12,5.87-6.36c1.49-2.23,2.23-4.45,2.23-6.65c0-2.52-2.27-3.78-6.79-3.78
				c-1.88,0-3.82,0.19-5.82,0.58c-2.01,0.39-3.98,0.81-5.92,1.26c-0.26,1.23-0.87,2.86-1.84,4.9s-2.09,4.19-3.35,6.45
				c-1.26,2.27-2.47,4.38-3.64,6.36c-1.16,1.97-2.1,3.54-2.81,4.71L640.32,540.82z"/>
			<path class="st3" d="M671.86,561.69c-1.23,0-2.27-0.4-3.11-1.21c-0.84-0.81-1.26-2.22-1.26-4.22c0-0.45,0.03-0.95,0.1-1.5
				c0.06-0.55,0.16-1.15,0.29-1.8c0.32-1.75,1-3.98,2.04-6.7c1.03-2.72,2.26-5.61,3.69-8.69c1.42-3.07,2.88-6.05,4.37-8.93
				c1.49-2.88,2.85-5.35,4.08-7.42c2.39-3.95,4.63-6.99,6.7-9.12c2.07-2.14,3.91-3.59,5.53-4.37c1.62-0.78,2.98-1.13,4.08-1.07
				c-1.68,1.88-3.53,4.17-5.53,6.89c-2.01,2.72-4.14,5.99-6.41,9.8c-2.85,4.92-5.32,9.38-7.42,13.39c-2.1,4.01-3.9,8.12-5.39,12.33
				c-0.84,2.46-1.26,4.46-1.26,6.02c0,2.2,0.74,3.3,2.23,3.3c1.16,0,2.48-0.58,3.93-1.75c1.46-1.16,2.6-2.2,3.45-3.11
				c1.29-1.29,2.44-2.51,3.45-3.64c1-1.13,1.99-2.28,2.96-3.45c0.19-0.19,0.35-0.29,0.48-0.29c0.39,0,0.58,0.29,0.58,0.87
				c0,0.32-0.13,0.62-0.39,0.87c-0.71,0.84-1.41,1.7-2.09,2.57c-0.68,0.87-1.41,1.73-2.18,2.57c-0.65,0.84-1.37,1.67-2.18,2.48
				c-0.81,0.81-1.6,1.57-2.38,2.28c-1.1,1.04-2.43,1.94-3.98,2.72C674.68,561.3,673.22,561.69,671.86,561.69z"/>
			<path class="st3" d="M691.95,561.78c-2.14,0-3.62-0.52-4.46-1.55c-0.84-1.03-1.26-2.3-1.26-3.78c0-1.94,0.47-4.01,1.41-6.21
				c0.94-2.2,1.76-3.91,2.48-5.14c1.75-2.78,3.82-5.44,6.21-7.96c2.39-2.52,4.93-4.58,7.62-6.16c2.68-1.58,5.26-2.38,7.72-2.38
				c1.29,0,2.56,0.21,3.79,0.63c1.23,0.42,2.43,1.12,3.59,2.09c0.58,0.45,0.99,0.89,1.21,1.31c0.23,0.42,0.34,0.79,0.34,1.12
				c0,0.97-0.42,1.46-1.26,1.46c-0.58,0-1-0.39-1.26-1.16c-0.84-2.2-2.2-3.3-4.08-3.3c-1.62,0-3.46,0.75-5.53,2.23
				c-2.07,1.49-4.11,3.27-6.11,5.34c-2.2,2.33-4.21,4.84-6.02,7.52c-1.81,2.69-3.17,5.13-4.08,7.33c-0.45,0.97-0.76,1.83-0.92,2.57
				c-0.16,0.75-0.24,1.38-0.24,1.89c0,1.16,0.48,1.75,1.46,1.75c1.1,0,2.72-0.81,4.85-2.43c1.55-1.23,3.15-2.72,4.8-4.46
				c1.65-1.75,3.19-3.48,4.61-5.19c1.42-1.71,2.55-3.06,3.4-4.03c0.32-0.52,0.63-1,0.92-1.46c0.29-0.45,0.57-0.84,0.82-1.16
				c0.26-0.32,0.69-0.58,1.31-0.78c0.61-0.19,1.25-0.29,1.89-0.29c0.78,0,1.42,0.13,1.94,0.39c0.52,0.26,0.61,0.71,0.29,1.36
				c0,0.07-0.36,0.73-1.07,1.99c-0.71,1.26-1.54,2.77-2.48,4.51c-0.94,1.75-1.76,3.43-2.48,5.05c-0.39,0.91-0.71,1.75-0.97,2.52
				c-0.26,0.78-0.39,1.42-0.39,1.94c0,0.84,0.32,1.26,0.97,1.26c0.45,0,1.13-0.26,2.04-0.78c1.42-0.71,2.86-1.75,4.32-3.11
				c1.46-1.36,2.8-2.75,4.03-4.17c0.71-0.71,1.36-1.39,1.94-2.04c0.58-0.65,1.13-1.33,1.65-2.04c0.19-0.19,0.35-0.29,0.49-0.29
				c0.39,0,0.58,0.29,0.58,0.87c0,0.32-0.13,0.62-0.39,0.87c-0.71,0.84-1.42,1.7-2.14,2.57c-0.71,0.87-1.46,1.73-2.23,2.57
				c-0.71,0.84-1.44,1.67-2.18,2.48c-0.74,0.81-1.5,1.57-2.28,2.28c-2.78,2.59-5.34,3.88-7.67,3.88c-1.04,0-1.91-0.37-2.62-1.12
				c-0.71-0.74-1.07-1.92-1.07-3.54c0-1.23,0.23-2.62,0.68-4.17c0.13-0.71,0.34-1.42,0.63-2.14c0.29-0.71,0.57-1.46,0.82-2.23
				c-1.29,2.07-2.77,4.12-4.42,6.16c-1.65,2.04-3.41,3.74-5.29,5.1C695.99,561.1,694.02,561.78,691.95,561.78z"/>
			<path class="st3" d="M719.32,561.98c2.78-5.18,5.1-10.17,6.94-14.99c1.84-4.82,3.96-9.69,6.36-14.61
				c0.71-1.29,1.62-2.18,2.72-2.67c1.1-0.48,2.17-0.73,3.2-0.73c0.84,0,1.59,0.1,2.23,0.29c-0.19,0.45-0.7,1.34-1.5,2.67
				c-0.81,1.33-1.67,2.83-2.57,4.51c-0.65,1.16-1.62,2.96-2.91,5.39c-1.3,2.43-2.49,4.93-3.59,7.52c0.58-0.71,1.49-1.88,2.72-3.49
				c1.23-1.62,2.65-3.38,4.27-5.29c1.62-1.91,3.31-3.75,5.1-5.53c1.78-1.78,3.53-3.23,5.24-4.37c1.71-1.13,3.25-1.7,4.61-1.7
				c1.03,0,1.94,0.33,2.72,0.97c0.78,0.65,1.16,1.52,1.16,2.62c0,1.62-0.68,3.51-2.04,5.68c-1.36,2.17-2.72,4.29-4.08,6.36
				c-0.26,0.39-0.73,1.13-1.41,2.23c-0.68,1.1-1.41,2.35-2.18,3.74c-0.78,1.39-1.44,2.72-1.99,3.98c-0.55,1.26-0.82,2.25-0.82,2.96
				c0,0.71,0.29,1.07,0.87,1.07c1.23,0,2.51-0.49,3.83-1.46c1.33-0.97,2.6-2.09,3.83-3.35c1.23-1.26,2.2-2.31,2.91-3.15
				c0.71-0.78,1.36-1.52,1.94-2.23c0.58-0.71,1.16-1.39,1.75-2.04c0.19-0.19,0.35-0.29,0.49-0.29c0.39,0,0.58,0.29,0.58,0.87
				c0,0.39-0.13,0.71-0.39,0.97c-0.71,0.84-1.42,1.7-2.13,2.57c-0.71,0.87-1.46,1.73-2.23,2.57c-0.71,0.84-1.44,1.67-2.18,2.48
				c-0.74,0.81-1.5,1.57-2.28,2.28c-2.78,2.59-5.37,3.88-7.76,3.88c-1.62,0-2.7-0.49-3.25-1.46c-0.55-0.97-0.82-2.17-0.82-3.59
				c0-1.55,0.42-3.23,1.26-5.05c0.84-1.81,1.88-3.67,3.11-5.58c1.23-1.91,2.48-3.77,3.74-5.58c1.26-1.81,2.31-3.48,3.15-5
				c0.84-1.52,1.26-2.8,1.26-3.83c0-0.39-0.23-0.58-0.68-0.58c-0.39,0-1.15,0.47-2.28,1.41c-1.13,0.94-2.35,2.04-3.64,3.3
				c-1.3,1.26-2.51,2.47-3.64,3.64c-1.13,1.16-1.89,2.01-2.28,2.52c-1.62,1.75-3.19,3.62-4.71,5.63c-1.52,2.01-2.96,3.95-4.32,5.82
				c-0.78,1.1-1.46,2.22-2.04,3.35c-0.58,1.13-1.23,2.31-1.94,3.54c-0.33,0.58-0.76,0.92-1.31,1.02c-0.55,0.1-1.28,0.18-2.18,0.24
				c-0.65,0-1.16,0.01-1.55,0.05C720.2,561.57,719.77,561.72,719.32,561.98z"/>
			<path class="st3" d="M752.8,561.98c2.78-5.18,5.1-10.17,6.94-14.99c1.84-4.82,3.96-9.69,6.36-14.61
				c0.71-1.29,1.62-2.18,2.72-2.67c1.1-0.48,2.17-0.73,3.2-0.73c0.84,0,1.59,0.1,2.23,0.29c-0.19,0.45-0.7,1.34-1.5,2.67
				c-0.81,1.33-1.67,2.83-2.57,4.51c-0.65,1.16-1.62,2.96-2.91,5.39c-1.3,2.43-2.49,4.93-3.59,7.52c0.58-0.71,1.49-1.88,2.72-3.49
				c1.23-1.62,2.65-3.38,4.27-5.29c1.62-1.91,3.31-3.75,5.1-5.53c1.78-1.78,3.53-3.23,5.24-4.37c1.71-1.13,3.25-1.7,4.61-1.7
				c1.03,0,1.94,0.33,2.72,0.97c0.78,0.65,1.16,1.52,1.16,2.62c0,1.62-0.68,3.51-2.04,5.68c-1.36,2.17-2.72,4.29-4.08,6.36
				c-0.26,0.39-0.73,1.13-1.41,2.23c-0.68,1.1-1.41,2.35-2.18,3.74c-0.78,1.39-1.44,2.72-1.99,3.98c-0.55,1.26-0.82,2.25-0.82,2.96
				c0,0.71,0.29,1.07,0.87,1.07c1.23,0,2.51-0.49,3.83-1.46c1.33-0.97,2.6-2.09,3.83-3.35c1.23-1.26,2.2-2.31,2.91-3.15
				c0.71-0.78,1.36-1.52,1.94-2.23c0.58-0.71,1.16-1.39,1.75-2.04c0.19-0.19,0.35-0.29,0.49-0.29c0.39,0,0.58,0.29,0.58,0.87
				c0,0.39-0.13,0.71-0.39,0.97c-0.71,0.84-1.42,1.7-2.13,2.57c-0.71,0.87-1.46,1.73-2.23,2.57c-0.71,0.84-1.44,1.67-2.18,2.48
				c-0.74,0.81-1.5,1.57-2.28,2.28c-2.78,2.59-5.37,3.88-7.76,3.88c-1.62,0-2.7-0.49-3.25-1.46c-0.55-0.97-0.82-2.17-0.82-3.59
				c0-1.55,0.42-3.23,1.26-5.05c0.84-1.81,1.88-3.67,3.11-5.58c1.23-1.91,2.48-3.77,3.74-5.58c1.26-1.81,2.31-3.48,3.15-5
				c0.84-1.52,1.26-2.8,1.26-3.83c0-0.39-0.23-0.58-0.68-0.58c-0.39,0-1.15,0.47-2.28,1.41c-1.13,0.94-2.35,2.04-3.64,3.3
				c-1.3,1.26-2.51,2.47-3.64,3.64c-1.13,1.16-1.89,2.01-2.28,2.52c-1.62,1.75-3.19,3.62-4.71,5.63c-1.52,2.01-2.96,3.95-4.32,5.82
				c-0.78,1.1-1.46,2.22-2.04,3.35c-0.58,1.13-1.23,2.31-1.94,3.54c-0.33,0.58-0.76,0.92-1.31,1.02c-0.55,0.1-1.28,0.18-2.18,0.24
				c-0.65,0-1.16,0.01-1.55,0.05C753.68,561.57,753.26,561.72,752.8,561.98z"/>
			<path class="st3" d="M796.38,561.4c-1.42,0-2.65-0.47-3.69-1.41c-1.04-0.94-1.55-2.54-1.55-4.8c0-0.97,0.1-2.04,0.29-3.2
				c0.58-3.04,1.54-5.95,2.86-8.74c1.33-2.78,2.62-5.19,3.88-7.23c1.26-2.04,2.09-3.38,2.48-4.03c0.32-0.65,1.16-1.28,2.52-1.89
				c1.36-0.61,2.49-0.92,3.4-0.92c0.78,0,1.16,0.26,1.16,0.78c0,0.45-0.16,0.87-0.48,1.26c-0.97,1.55-2.09,3.32-3.35,5.29
				c-1.26,1.97-2.48,4.06-3.64,6.26c-1.16,2.2-2.14,4.37-2.91,6.5c-0.78,2.14-1.16,4.11-1.16,5.92c0,0.97,0.18,1.75,0.53,2.33
				c0.35,0.58,1.02,0.87,1.99,0.87c1.03,0,2.23-0.5,3.59-1.5c1.36-1,2.67-2.14,3.93-3.4c1.26-1.26,2.18-2.25,2.77-2.96
				c0.65-0.71,1.28-1.39,1.89-2.04c0.61-0.65,1.18-1.33,1.7-2.04c0.19-0.19,0.35-0.29,0.48-0.29c0.39,0,0.58,0.29,0.58,0.87
				c0,0.32-0.13,0.62-0.39,0.87c-0.71,0.84-1.42,1.7-2.14,2.57c-0.71,0.87-1.46,1.73-2.23,2.57c-1.04,1.23-2.2,2.49-3.49,3.78
				c-1.29,1.3-2.69,2.38-4.17,3.25C799.74,560.96,798.13,561.4,796.38,561.4z M809.68,523.06c-0.71,0-1.29-0.24-1.75-0.73
				c-0.45-0.48-0.68-1.05-0.68-1.7c0-0.97,0.34-1.8,1.02-2.48c0.68-0.68,1.44-1.02,2.28-1.02c0.84,0,1.5,0.28,1.99,0.83
				c0.48,0.55,0.66,1.25,0.53,2.09c-0.19,0.84-0.6,1.55-1.21,2.14C811.24,522.77,810.52,523.06,809.68,523.06z"/>
			<path class="st3" d="M806.96,561.98c2.78-5.18,5.1-10.17,6.94-14.99c1.84-4.82,3.96-9.69,6.36-14.61
				c0.71-1.29,1.62-2.18,2.72-2.67c1.1-0.48,2.17-0.73,3.2-0.73c0.84,0,1.59,0.1,2.23,0.29c-0.19,0.45-0.7,1.34-1.5,2.67
				c-0.81,1.33-1.67,2.83-2.57,4.51c-0.65,1.16-1.62,2.96-2.91,5.39c-1.3,2.43-2.49,4.93-3.59,7.52c0.58-0.71,1.49-1.88,2.72-3.49
				c1.23-1.62,2.65-3.38,4.27-5.29c1.62-1.91,3.31-3.75,5.1-5.53c1.78-1.78,3.53-3.23,5.24-4.37c1.71-1.13,3.25-1.7,4.61-1.7
				c1.03,0,1.94,0.33,2.72,0.97c0.78,0.65,1.16,1.52,1.16,2.62c0,1.62-0.68,3.51-2.04,5.68c-1.36,2.17-2.72,4.29-4.08,6.36
				c-0.26,0.39-0.73,1.13-1.41,2.23c-0.68,1.1-1.41,2.35-2.18,3.74c-0.78,1.39-1.44,2.72-1.99,3.98c-0.55,1.26-0.82,2.25-0.82,2.96
				c0,0.71,0.29,1.07,0.87,1.07c1.23,0,2.51-0.49,3.83-1.46c1.33-0.97,2.6-2.09,3.83-3.35c1.23-1.26,2.2-2.31,2.91-3.15
				c0.71-0.78,1.36-1.52,1.94-2.23c0.58-0.71,1.16-1.39,1.75-2.04c0.19-0.19,0.35-0.29,0.49-0.29c0.39,0,0.58,0.29,0.58,0.87
				c0,0.39-0.13,0.71-0.39,0.97c-0.71,0.84-1.42,1.7-2.13,2.57c-0.71,0.87-1.46,1.73-2.23,2.57c-0.71,0.84-1.44,1.67-2.18,2.48
				c-0.74,0.81-1.5,1.57-2.28,2.28c-2.78,2.59-5.37,3.88-7.76,3.88c-1.62,0-2.7-0.49-3.25-1.46c-0.55-0.97-0.82-2.17-0.82-3.59
				c0-1.55,0.42-3.23,1.26-5.05c0.84-1.81,1.88-3.67,3.11-5.58c1.23-1.91,2.48-3.77,3.74-5.58c1.26-1.81,2.31-3.48,3.15-5
				c0.84-1.52,1.26-2.8,1.26-3.83c0-0.39-0.23-0.58-0.68-0.58c-0.39,0-1.15,0.47-2.28,1.41c-1.13,0.94-2.35,2.04-3.64,3.3
				c-1.3,1.26-2.51,2.47-3.64,3.64c-1.13,1.16-1.89,2.01-2.28,2.52c-1.62,1.75-3.19,3.62-4.71,5.63c-1.52,2.01-2.96,3.95-4.32,5.82
				c-0.78,1.1-1.46,2.22-2.04,3.35c-0.58,1.13-1.23,2.31-1.94,3.54c-0.33,0.58-0.76,0.92-1.31,1.02c-0.55,0.1-1.28,0.18-2.18,0.24
				c-0.65,0-1.16,0.01-1.55,0.05C807.83,561.57,807.41,561.72,806.96,561.98z"/>
			<path class="st3" d="M837.04,595.27c-2.72,0-4.51-0.65-5.39-1.94c-0.87-1.29-1.28-2.65-1.21-4.08c0.19-2.39,1.02-4.66,2.48-6.79
				c1.46-2.14,3.32-4.14,5.58-6.02c2.27-1.88,4.69-3.59,7.28-5.14c2.59-1.55,5.1-2.96,7.52-4.22c2.43-1.26,4.55-2.35,6.36-3.25
				c1.81-0.91,3.07-1.62,3.79-2.14c0.97-2.85,1.68-5.58,2.14-8.2c0.45-2.62,0.61-4.93,0.48-6.94c-0.65,1.3-1.6,2.98-2.86,5.05
				c-1.26,2.07-2.7,3.98-4.32,5.73c-1.29,1.42-2.65,2.61-4.08,3.54c-1.42,0.94-2.88,1.41-4.37,1.41c-2.01,0-3.4-0.73-4.17-2.18
				c-0.78-1.46-1.16-3.09-1.16-4.9c0-0.58,0.03-1.16,0.1-1.75c0.06-0.58,0.16-1.13,0.29-1.65c0.52-2.07,1.29-4.12,2.33-6.16
				c1.03-2.04,2.12-3.88,3.25-5.53c1.13-1.65,2.09-2.89,2.86-3.74c1.88-2.26,4.09-4.12,6.65-5.58c2.56-1.46,5.16-2.18,7.81-2.18
				c2.72,0,5.27,0.91,7.67,2.72c0.97,0.78,1.46,1.59,1.46,2.43c0,0.97-0.39,1.46-1.16,1.46c-0.65,0-1.1-0.39-1.36-1.16
				c-0.84-2.39-2.23-3.59-4.17-3.59c-1.88,0-3.8,0.66-5.78,1.99c-1.97,1.33-3.87,3.06-5.68,5.19c-1.81,2.14-3.45,4.4-4.9,6.79
				c-1.46,2.39-2.61,4.69-3.44,6.89c-0.84,2.2-1.26,4.01-1.26,5.43c0,1.75,0.68,2.62,2.04,2.62c1.23,0,2.57-0.61,4.03-1.84
				c1.46-1.23,2.86-2.77,4.22-4.61c1.36-1.84,2.56-3.67,3.59-5.48c1.03-1.81,1.71-3.3,2.04-4.46c0.45-1.42,1-2.36,1.65-2.82
				c0.65-0.45,1.33-0.68,2.04-0.68c0.26,0,0.5,0.02,0.73,0.05c0.23,0.03,0.47,0.08,0.73,0.15c0.06,0.32,0.11,0.81,0.15,1.46
				c0.03,0.65,0.05,1.42,0.05,2.33c0,1.88-0.11,4.17-0.34,6.89c-0.23,2.72-0.63,5.4-1.21,8.06l1.07-0.78
				c1.68-1.23,3.33-2.49,4.95-3.79c1.62-1.29,2.82-2.39,3.59-3.3c0.71-0.71,1.36-1.39,1.94-2.04c0.58-0.65,1.13-1.33,1.65-2.04
				c0.13-0.19,0.29-0.29,0.49-0.29c0.39,0,0.58,0.26,0.58,0.78c0,0.32-0.16,0.65-0.48,0.97c-1.36,1.68-2.78,3.4-4.27,5.14
				c-0.39,0.45-1.34,1.34-2.86,2.67c-1.52,1.33-3.12,2.57-4.8,3.74c-0.84,0.65-1.68,1.2-2.52,1.65c-1.23,4.27-2.93,8.43-5.1,12.47
				c-2.17,4.04-4.68,7.7-7.52,10.97c-2.85,3.27-5.89,5.87-9.12,7.81C843.8,594.3,840.47,595.27,837.04,595.27z M836.56,593.23
				c2.52,0,5.11-0.94,7.76-2.81c2.65-1.88,5.21-4.29,7.67-7.23c2.46-2.95,4.63-6.08,6.5-9.41c1.88-3.33,3.27-6.45,4.17-9.37
				c-1.1,0.71-2.8,1.63-5.1,2.77c-2.3,1.13-4.84,2.48-7.62,4.03c-2.78,1.55-5.45,3.27-8.01,5.14c-2.55,1.88-4.71,3.93-6.45,6.16
				c-1.75,2.23-2.68,4.58-2.82,7.04c-0.06,0.84,0.19,1.67,0.78,2.48C834.04,592.82,835.07,593.23,836.56,593.23z"/>
		</g>
		<g>
			<path class="st4" d="M398.09,421.26v15.8h-22.12v46.32h-15.26v-46.32H338.6v-15.8H398.09z"/>
			<path class="st4" d="M468.28,483.38h-16.4l-4.9-11.4h-31.99l-4.9,11.4h-16.4l29.38-62.12h15.83L468.28,483.38z M430.98,437.06
				l-9.63,20.74h19.26L430.98,437.06z"/>
			<path class="st4" d="M525.32,421.26v35.1c0,17.68-9.06,27.83-25.87,27.83h-8.81c-8.65,0-15.75-2.33-20.4-7.99l9.47-12.57
				c2.78,3.14,6.12,4.76,10.94,4.76h8.81c6.77,0,10.61-4.22,10.61-12.03v-19.57h-26.03v-15.53H525.32z"/>
			<path class="st4" d="M614.11,421.26v15.08h-38.68v8.53h34.11v14.9h-34.11v8.53h38.68v15.08h-53.86v-62.12H614.11z"/>
			<path class="st4" d="M654.75,464.44l18.53-43.18h17.06l-27.67,62.12h-15.83l-27.75-62.12h17.22L654.75,464.44z"/>
			<path class="st4" d="M750.81,421.26v15.08h-38.68v8.53h34.11v14.9h-34.11v8.53h38.68v15.08h-53.86v-62.12H750.81z"/>
			<path class="st4" d="M810.38,421.26h15.02v62.12h-13.71l-35.66-36.44v36.44h-15.1v-62.12h13.79l35.66,36.53V421.26z"/>
			<path class="st4" d="M892.89,421.26v15.8h-22.12v46.32h-15.26v-46.32h-22.12v-15.8H892.89z"/>
			<path class="st4" d="M947.16,439.57c-3.51-3.59-6.86-4.58-12.24-4.58h-13.38c-4.82,0-7.75,1.35-7.75,4.13
				c0,2.06,1.14,3.23,6.53,4.22l21.87,2.15c12.57,2.06,16.08,10.86,16.08,19.75c0,11.49-8.41,18.94-22.36,18.94h-13.71
				c-12.81,0-21.38-4.49-25.46-13.02l12.98-9.07c3.26,6.1,7.18,7.63,12.73,7.63h13.71c4.81,0,7.35-1.71,7.35-4.85
				c0-3.05-2.12-4.22-5.96-5.03l-23.34-2.78c-11.18-1.97-15.18-9.25-15.18-17.41c0-12.12,8.49-19.21,23.18-19.21h13.14
				c10.12,0,17.55,2.96,22.12,8.53L947.16,439.57z"/>
		</g>
	</g>
</g>
</svg>
