<svg id="Layer_1" data-name="Layer 1" xmlns="http://www.w3.org/2000/svg" viewBox="0 0 1000 1000"><defs><style>.cls-1{fill:#630826;}.cls-2{fill:#ba7e36;}</style></defs><path class="cls-1" d="M404.5,636.2l-7.8-27.3c23.6,2.5,44.6,5,66.9,7.5l4.4.3,10.3,18.1L498.9,671,520,635.1l10.6-18.2,10.8-.7,60.5-6-8.2,27.2c-1.6,4.8,1.5,9.6,4.7,12.9l56.8,48.4,34.1,29.1L670,737.3c-8,3.1-6.5,8-3.4,19.2l14.2,53.1-52.9-11.7a12,12,0,0,0-6.8,2.2l-8.8,26.1-.6,1.8-21.2-23.5-.4-.5-21.4-24.1a12.2,12.2,0,0,0-3.7-3.8l-22.8-25.3-85.7-.5-22.3,24-48.4,52.5h-.2c-2.7-8.4-5.4-16.9-8-25.3-1.2-4-5.6-5.3-9.3-5.3l-53,11,14.8-52.8c3.2-11.3,4.8-16.1-3.1-19.3l-19.2-9.7,35.7-29.7L399.6,649C404.5,645.8,406.1,641,404.5,636.2Z"/><path class="cls-2" d="M460.2,772.3l76.1.5,54.4,95.4-47-13.3-46.4,69.7-45.6-70.3L404.6,867Z"/><polygon class="cls-2" points="499.1 647.5 486 624.6 472.9 601.6 499.3 601.8 525.7 602 512.4 624.8 499.1 647.5"/><circle class="cls-1" cx="497.2" cy="931.9" r="7.2"/><circle class="cls-1" cx="399.4" cy="872.1" r="7.2"/><circle class="cls-1" cx="595.8" cy="873.4" r="7.2"/><path class="cls-1" d="M363.8,404.5l27.3-7.8c-2.5,23.6-5,44.6-7.5,66.9l-.3,4.4-18.1,10.3L329,498.9,364.9,520l18.2,10.6.6,10.8c2.1,20.4,4.1,40.1,6.1,60.5l-27.2-8.2c-4.8-1.6-9.6,1.5-12.9,4.7l-48.4,56.8-29.1,34.1L262.7,670c-3.1-8-8-6.5-19.2-3.4l-53.1,14.2,11.7-52.9a12,12,0,0,0-2.2-6.8l-26.1-8.8-1.8-.6,23.5-21.2.5-.4,24.1-21.4a12.2,12.2,0,0,0,3.8-3.7l25.3-22.8.5-85.7-24-22.3-52.5-48.4h.1v-.2l25.3-8c4-1.2,5.3-5.6,5.3-9.3l-11-53,52.8,14.8c11.3,3.2,16.1,4.8,19.3-3.1l9.7-19.2,29.7,35.7L351,399.6C354.2,404.5,359,406.1,363.8,404.5Z"/><path class="cls-2" d="M227.7,460.2l-.5,76.1-95.4,54.4,13.3-47L75.4,497.3l70.3-45.6L133,404.6Z"/><polygon class="cls-2" points="352.5 499.1 375.4 486 398.4 472.9 398.2 499.3 398 525.7 375.2 512.4 352.5 499.1"/><circle class="cls-1" cx="68.1" cy="497.2" r="7.2"/><circle class="cls-1" cx="127.9" cy="399.4" r="7.2"/><circle class="cls-1" cx="126.6" cy="595.8" r="7.2"/><path class="cls-1" d="M595.5,363.8l7.8,27.3c-23.6-2.5-44.6-5-66.9-7.5l-4.4-.3-10.3-18.1L501.1,329,480,364.9l-10.6,18.2-10.8.6-60.5,6.1,8.2-27.2c1.6-4.8-1.5-9.6-4.7-12.9l-56.8-48.4-34.1-29.1,19.3-9.5c8-3.1,6.5-8,3.4-19.2l-14.2-53.1,52.9,11.7a12,12,0,0,0,6.8-2.2l8.8-26.1.6-1.8,21.2,23.5.4.5,21.4,24.1a12.2,12.2,0,0,0,3.7,3.8l22.8,25.3,85.7.5,22.3-24,48.4-52.5h.2c2.7,8.4,5.4,16.9,8,25.3,1.2,4,5.6,5.3,9.3,5.3l53-11-14.8,52.8c-3.2,11.3-4.8,16.1,3.1,19.3l19.2,9.7-35.7,29.7L600.4,351C595.5,354.2,593.9,359,595.5,363.8Z"/><path class="cls-2" d="M539.8,227.7l-76.1-.5-54.4-95.4,47,13.3,46.4-69.7,45.6,70.3L595.4,133Z"/><polygon class="cls-2" points="500.9 352.5 514 375.4 527 398.4 500.7 398.2 474.3 398 487.6 375.2 500.9 352.5"/><circle class="cls-1" cx="502.8" cy="68.1" r="7.2"/><circle class="cls-1" cx="600.6" cy="127.9" r="7.2"/><circle class="cls-1" cx="404.2" cy="126.6" r="7.2"/><path class="cls-1" d="M636.2,595.5l-27.3,7.8c2.5-23.6,5-44.6,7.5-66.9l.3-4.4,18.1-10.3L671,501.1,635.1,480l-18.2-10.6-.7-10.8c-2-20.4-4-40.1-6-60.5l27.2,8.2c4.8,1.6,9.6-1.5,12.9-4.7l48.4-56.8,29.1-34.1,9.5,19.3c3.1,8,8,6.5,19.2,3.4l53.1-14.2-11.7,52.9a12,12,0,0,0,2.2,6.8l26.1,8.8,1.8.6-23.5,21.2-.5.4-24.1,21.4a12.2,12.2,0,0,0-3.8,3.7l-25.3,22.8-.5,85.7,24,22.3,52.5,48.4h-.1v.2l-25.3,8c-4,1.2-5.3,5.6-5.3,9.3l11,53-52.8-14.8c-11.3-3.2-16.1-4.8-19.3,3.1l-9.7,19.2-29.7-35.7L649,600.4C645.8,595.5,641,593.9,636.2,595.5Z"/><path class="cls-2" d="M772.3,539.8l.5-76.1,95.4-54.4-13.3,47,69.7,46.4-70.3,45.6L867,595.4Z"/><polygon class="cls-2" points="647.5 500.9 624.6 514 601.6 527 601.8 500.7 602 474.3 624.8 487.6 647.5 500.9"/><circle class="cls-1" cx="931.9" cy="502.8" r="7.2"/><circle class="cls-1" cx="872.1" cy="600.6" r="7.2"/><circle class="cls-1" cx="873.4" cy="404.2" r="7.2"/><circle class="cls-1" cx="500" cy="500" r="55.6"/></svg>