<svg id="Layer_1" data-name="Layer 1" xmlns="http://www.w3.org/2000/svg" viewBox="0 0 612 612"><defs><style>.cls-1{fill:#fff;}</style></defs><path class="cls-1" d="M301.4,133V109.4c0-1.6-.4-3.5.1-4.9s2.1-3,3.2-4.5c1.2,1.5,3.5,2.9,3.6,4.4.4,7.2.2,14.4.2,21.6v7.2c10.3,1,20,1.6,29.6,2.9,95.8,13.1,170.9,91.3,180.3,187.7.6,6.4.4,12.9.6,19.3.1,2.7-.1,5.9-3.7,5.4-1.3-.2-3.2-3.3-3.2-5.1-.2-7.5-3.7-13.1-9-17.7-13-11.3-28.7-14.9-45.3-14.9s-30.3,3.6-43.1,13.2c-6.6,4.9-11.4,10.9-11.2,19.9,0,1.4-2,2.8-3.1,4.3-1.3-1.3-3.6-2.6-3.6-3.8.2-14.2-10-19.9-20.8-26.6.5,7.1,1.2,13.2,1.4,19.4.2,8.1-.1,16.2,0,24.3.1,3.9-1.7,5.9-5.2,7.5A160.5,160.5,0,0,1,314,383.2l-5.4.4v6.2q-.2,47.1-.1,94.2c0,12.3,8,20.9,19.4,20.9s19.8-8.9,19.9-21.3c0-3.3-.4-6.6.1-9.9.2-1.2,2.3-2.7,3.7-2.9s3.1,1.8,3.1,2.9c-.1,6.4.4,13.1-1.1,19.2-3.4,13.2-16.1,20.7-29.9,18.8s-22.2-12.6-22.2-26.2c-.2-32-.1-63.9-.2-95.8v-5.5c-11.7-1.8-23-2.8-33.8-5.3s-19.3-6.2-28.9-9.4c-4.7-1.5-6.8-4.5-6.5-9.5.6-12.2.9-24.3,1.4-36.5.1-1.6.3-3.1.5-6-10.8,6.8-20.9,12.5-20.8,26.6,0,1.5-2.4,3-3.6,4.5-1.1-1.5-3.3-2.9-3.2-4.3.5-10.3-5.6-16.5-13-21.8-21.7-15.3-59.3-15.6-81.4-.7-8.1,5.5-14.6,12-14.1,22.9,0,1.4-2.2,2.8-3.3,4.2-1.2-1.8-3.4-3.5-3.5-5.3-.5-19.3,1.6-38.4,7.4-56.8,25.8-82.2,81.9-131.4,165.7-149.3C276,135,288.3,134.5,301.4,133Zm94.5,188.8a45.1,45.1,0,0,0,0-5.2c-1.1-12.7-1.8-25.4-3.5-38-4.9-34.9-15.7-67.8-36-97.1-10.5-15.2-23-28.4-39.4-37.4-7.8-4.3-16-4.7-23.8-.1a113.9,113.9,0,0,0-15.4,10.6c-17.2,14.3-29.6,32.3-39.2,52.3-13.7,28.7-20.5,59.1-23.4,90.6-.7,8.1-1,16.3-1.5,24.6,6.5-4,11.9-7.8,17.7-10.9,3-1.7,4.5-3.5,5.2-7,6-28.4,16.3-54.5,41.7-72-1-3.2-2.2-6.3-2.9-9.5-.3-1.5,0-4,1-4.7s3.4-.1,4.9.6c3.8,2,7.5,4.3,11.3,6.6l7.2-9.5c.6-.8.4-2.2,1-3a47.5,47.5,0,0,1,4-3.8c1.2,1.3,3.1,2.4,3.6,4,3.5,10.5,9.1,12.6,18.2,6.6.7-.5,1.3-1.4,2.1-1.6s3.6-.9,4.6-.2,1.3,2.9,1.2,4.3a24,24,0,0,1-1.9,6.3c-1.4,3.3-.4,5.1,2.5,7.2a81.4,81.4,0,0,1,12.6,11.6c14.3,16.7,21.1,36.9,25.9,58,.4,1.8,1.3,4,2.7,4.9C382.6,314.1,389.1,317.7,395.9,321.8Zm7.9,1.5c15.7-13.9,33.4-19.6,53.1-19.8s37.4,4.9,52.9,18c-5.7-88.9-85.2-170.9-179.9-178.6,4.7,4.1,9.6,8,14,12.4,25.8,25.6,40.6,57.1,49.7,91.7C400.1,271.6,402.8,296.7,403.8,323.3ZM279.2,143c-51.3,5.9-94.6,27.8-129.4,65.9-28.8,31.7-45.6,69-50.2,113.2,16.4-13.8,34.3-18.8,53.9-18.5s37.3,5.8,52.2,19.6c1.3-14.3,2.1-28.1,4-41.7C217.4,227.7,235.2,178.9,279.2,143ZM250.3,366.5c.7-18,12-24.9,26.9-28.3a22.2,22.2,0,0,0,6.6-2.6c5.7-3.4,5.9-8.1.7-11.9a51.2,51.2,0,0,1-18.2-25.9c-9.1-28.1,4.3-50.7,32.5-54.8,23.1-3.4,44.9,11.1,47,32.3,2,19.5-4.7,35.9-20.2,48.3-5.1,4.1-5.1,8.7.7,12a49.7,49.7,0,0,0,11.3,4.3c12.6,3.3,20.3,10.8,22.1,23.9a5.2,5.2,0,0,0,1,1.8c9.6-2.9,9.9-2.9,9.8-12.2s-.3-19.9-1.4-29.8c-2.7-23.3-8.2-45.8-22-65.4-4.6-6.6-10.7-12.2-17-19.3-1.6,6.1-4.1,6.2-7.7,4.9-11.4-3.8-22.9-4.3-34.2-.1-4.1,1.5-6.7,1.1-8.1-3.7a85,85,0,0,0-6.8,5.5c-10,9-16.6,20.2-21.5,32.5-10.1,25.4-13.2,52-12.5,79.2.1,3.7,1.1,5.9,4.7,6.8A61.3,61.3,0,0,1,250.3,366.5Zm45-35.5c-1.6,8.6-8.8,12-16.9,14.4l-7.9,2.5c-8.2,2.5-11.9,8.5-13.1,16.7-.5,3.3.3,4.9,3.8,5.8,29.2,7.5,58.2,8.2,87.4-.1,3.7-1.1,4.6-2.6,4-6.2-1.6-9.9-7.7-15-16.9-17.4s-18.7-5.4-21-15.7Zm43.1-40.6c-15.1-2.5-27.8-8.8-38.1-20-6.8,11.3-16.7,17.2-28.7,21,4.4,15.5,12.8,26.9,27.9,32.2a17.8,17.8,0,0,0,10.7,0C326,318.3,334.2,306.4,338.4,290.4ZM271,284.2c11.6-3.9,20-10.1,25-20.6.7-1.6,2.3-3.8,3.7-3.9s3.2,1.9,4.2,3.4c8.6,11.9,20.6,17.6,35.2,20.3.2-12.5-3.6-22.3-13.9-28.5-13.2-8-27.1-7.9-40.4,0C274.2,261.1,270.6,271.2,271,284.2Zm54-54.4c-4.3.5-8.7,2.3-11.7,1s-5.7-5.9-8.5-9c-2.9,3.3-5,7.6-8.3,9s-7.5-.2-11.6-.5c.7,2,1.4,4.2,1.9,5.9,6.4-.7,12.2-2,18-2s11.9,1.4,18.2,2.2C323.7,234.2,324.4,231.9,325,229.8Z"/><path class="cls-1" d="M449.7,448.3c0,11.9-6.5,18.3-14.5,18s-15.4-7.6-13.3-15.6,6.8-17.7,10.8-26.4a3.1,3.1,0,0,1,5.8-.2C443,433.1,447,442.3,449.7,448.3Zm-13.1-14.2h-2c-1.9,5.2-4.4,10.4-5.4,15.8-.5,2.6,1.2,6.4,3.1,8.5s5.8,1.1,6.9-.2,3.4-5.9,2.9-8.5C441,444.3,438.5,439.3,436.6,434.1Z"/><path class="cls-1" d="M435.8,393.5c-8.7.1-16.1-7.7-13.7-16s6.5-17.1,10.3-25.4c1.6-3.4,4.9-3.3,6.4-.1,4,8.5,8.2,16.9,10.7,25.9S444.4,393.3,435.8,393.5Zm.8-32.1h-1.8c-1.9,5-4.4,9.8-5.4,15a11.4,11.4,0,0,0,2.6,8.6c1.1,1.4,6,1.4,7.2.2s3.4-5.9,2.9-8.5C441,371.5,438.5,366.5,436.6,361.4Z"/><path class="cls-1" d="M160.9,447.7c2.7-5.8,6.6-14.8,11.2-23.6,1.4-2.6,4.5-2,5.7.6,3.8,8.4,8.1,16.7,10.5,25.4s-4.6,15.8-13.2,16.1S160.6,460.1,160.9,447.7Zm14.6-14h-1.6c-2,5.6-4.5,11.1-5.8,16.9-.5,2.3,1.2,6,3.1,7.4s5.7,1.2,7.3-.1,3.4-5.2,2.9-7.4C180.1,444.7,177.6,439.3,175.5,433.7Z"/><path class="cls-1" d="M369.2,436.5c-8.7,0-15.8-7.7-13.4-16.1s6.4-16.7,10.2-24.8c1.7-3.6,5-3.6,6.7.1,3.7,8.1,7.8,16.3,10.1,24.9S378.1,436.6,369.2,436.5Zm1.2-32.1-1.8-.2c-2,5.4-4.5,10.6-5.7,16.2-.5,2.4,1,6.1,2.9,8s5.6,1.2,6.9,0,3.5-5.5,3-7.9C374.7,415,372.3,409.8,370.4,404.4Z"/><path class="cls-1" d="M174.7,393.4c-8.7.1-15.9-6.9-13.8-15.3s6.9-17.8,11-26.3c1.4-3.1,4.7-2.4,6,.5,3.7,8.2,7.9,16.3,10.3,24.9S183.6,393.3,174.7,393.4Zm.8-32.1h-1.6c-2,5.5-4.6,11-5.9,16.8-.5,2.2,1.3,5.9,3.2,7.3s5.7,1.1,7.3-.2a8.8,8.8,0,0,0,2.6-7.4C179.9,372.1,177.5,366.7,175.5,361.3Z"/><path class="cls-1" d="M244.6,455.5c-8.4-.1-15.5-7.3-13.4-15.2s6.7-17.4,10.6-25.9c1.5-3.4,4.8-3.1,6.3.1,3.7,8,7.8,16,10,24.4S253.7,455.5,244.6,455.5Zm1.1-32.5-1.8.2c-1.9,5.6-4.3,11.2-5.6,17-.4,2.1.9,5.7,2.7,7s5.6,1.2,7.4.1,3.5-4.8,3.1-6.8C250.1,434.5,247.7,428.8,245.7,423Z"/></svg>