<svg id="Layer_1" data-name="Layer 1" xmlns="http://www.w3.org/2000/svg" viewBox="0 0 612 612"><defs><style>.cls-1{fill:#fff;}</style></defs><path class="cls-1" d="M114.3,334.5c1-5.9,1.7-11.8,2.9-17.6,11-54,55.9-96.4,110.6-104.5l2.8-.7c-1.3-1.1-2.3-1.7-3.1-2.5-7.7-7.5-15.9-14.5-22.8-22.6s-10.5-17.6-8.3-28.4,8.9-18.9,19.7-22.6,20.8-1.3,29.6,6.2l1.9,1.8.6.2a29.7,29.7,0,0,1,16.2-9.2c11.5-2.1,21.3,1.3,28.8,10.2s8.7,19.1,4.8,29.9c-3.1,8.5-8.5,15.5-15,21.7s-11.3,10.1-17.2,15.4c3.4.7,6.8,1.2,10.1,2,54.1,12,94.9,54.3,103.9,108.6,5.6,33.9-1.1,65.7-19.7,94.8-1.1,1.6-2,2.9-4.4,2.6A77.2,77.2,0,0,1,323,408.1a31.5,31.5,0,0,1,1.9-2.7c45.5-58.8,13.8-143.3-59-157.5-54.1-10.5-107.8,28-115.1,82.6s28,101.8,81.2,110.6c7.7,1.3,12.8,4.3,18,9.8,7.6,7.8,16.4,14.5,24.7,21.6a7.2,7.2,0,0,1,2.2,2.9c-7.6.8-15.1,2.1-22.7,2.5-67.5,3.5-127.8-45.6-138.3-112.5-.6-3.8-1.1-7.6-1.6-11.4Z"/><path class="cls-1" d="M289,280.9a101.5,101.5,0,0,0-17.9,31.6c-20.3,58.2,18.5,121.2,79.5,129.2a98.3,98.3,0,0,0,110.9-86.5c6.3-54-34.4-103.7-88.6-108.5a9.3,9.3,0,0,1-5.5-2.9,167.2,167.2,0,0,0-29.5-26.9l-3.6-2.7a114.5,114.5,0,0,1,39.8-2.9c55.2,5.9,94.1,34.5,114.6,86,30.6,77-20,165.3-101.5,178.7-72.4,11.9-138.8-32.7-154.1-104.3-7.6-35.6-1-69.1,18.5-99.9,1.4-2.1,2.7-2.8,5.2-2.5A74.6,74.6,0,0,1,289,280.9Z"/></svg>