<svg id="Layer_1" data-name="Layer 1" xmlns="http://www.w3.org/2000/svg" viewBox="0 0 612 612"><defs><style>.cls-1{fill:#fff;}</style></defs><path class="cls-1" d="M393,498c-4.1-2.5-5.2-6.1-5.1-10.7.2-9-.1-18,.1-27a9.6,9.6,0,0,0-2.9-7.3c-9.3-10.3-18.8-20.4-27.6-31.1-15.9-19.4-24.5-42.1-29-66.6-2.8-15.3-6.2-30.6-9.3-45.9s4.9-29.3,19.2-34.3A29.5,29.5,0,0,1,374.8,290c4.3,8.5,8.2,17.1,13.1,25.6v-4.2q0-63.9.1-127.8c0-15.8,9.4-27.9,24-31,5.3-1.2,9.7-.6,21,2.8,0-3.2-.1-6.3,0-9.3,0-16.5,8.4-27.3,24.3-31.5a3.3,3.3,0,0,0,1-.6h9c2.1.7,4.3,1.1,6.4,2,11.9,5.1,18.5,14,19.2,27,.2,4.1,0,8.2,0,12.8,10.6-5,20.6-5.3,30.3.4s14.4,14.5,14.9,25.8a88.8,88.8,0,0,1,9.3-2.8,29.7,29.7,0,0,1,35.5,28.3c.3,9.5.1,19,0,28.5,0,5-3,8.2-7.2,8.3s-7.6-3.3-7.7-8.4c-.1-9.4.1-19-.2-28.4-.1-6.1-3.5-10.4-9-12.7a14.2,14.2,0,0,0-15.7,2.6c-3.9,3.4-5.2,7.8-5.1,12.8v58.5c0,10.4,0,20.8-.1,31.1,0,5.7-4.3,9.1-9.4,7.8-3.4-.9-5.4-3.7-5.5-8-.1-5.9,0-11.7,0-17.6v-4.3H493v3.9c-.1,6.4,0,12.8-.1,19.2a7.1,7.1,0,0,1-6.9,7,7.3,7.3,0,0,1-7.8-6.1,22.6,22.6,0,0,1-.2-4.5V223.8H448v4.4c0,23.2,0,46.5-.1,69.7a19.1,19.1,0,0,1-.3,4.8,7.3,7.3,0,0,1-7.9,5,6.9,6.9,0,0,1-6.6-6.9c-.3-4.4-.1-8.8-.1-13.1s0-6.5,0-10H402.9V282c0,22.5.1,45,0,67.5,0,5.6-3.2,8.8-8.1,8.4s-5.5-2.9-7-5.9L362,297.9c-2.9-6.1-7.5-9.6-14.4-9.5s-14.3,7-14,15.4a15.3,15.3,0,0,0,.3,3c1.3,6.3,2.7,12.6,4.1,19.3l14.1-3.2c4.9-1,8.8,1.1,9.9,5.5s-1.6,7.9-6.4,9.1-9.4,2.2-14.6,3.4l3.9,19.2,15.3-3.3c4.6-1,8.4,1.2,9.4,5.2s-1.3,8.1-6,9.3l-14.1,3.3c.2,5,7.4,20.8,12.5,27.3,3.6-11,9.7-19.8,20.8-24s21.2-1.5,31.1,4.7c.6-2,1.1-3.8,1.7-5.6a49,49,0,0,1,21.6-26c9.3-5.5,17.9-11.8,24.7-20.4a6.9,6.9,0,0,1,11.3-.1c6.9,8.8,15.7,15,25,20.6,11.2,6.9,19,16.6,22.4,29.4a7.8,7.8,0,0,0,.5,1.4l.5.3c15.9-9.6,30.8-8.8,44.7,5.6.5-5.1,1.4-9.6,1.4-14.2.2-22.1.2-44.2.3-66.3a20.3,20.3,0,0,1,.4-4.9,7.1,7.1,0,0,1,7.8-5.4,7.2,7.2,0,0,1,6.7,6.5,16.2,16.2,0,0,1,.1,2.2c-.1,21.3.2,42.5-.2,63.8-.5,30.6-10.3,58.2-27.8,83.2a13.6,13.6,0,0,0-2.4,7.5c-.3,9-.3,18-.1,27,.1,4.6-1,8.3-5,10.8H543c-4.2-1.8-5.7-5.1-5.6-9.6.2-8.1,0-16.2.1-24.3,0-2.4-.8-3.2-3.1-3.6a139.9,139.9,0,0,1-58.6-25.1c-2.8-2-5.5-4.2-8.3-6.3a140.1,140.1,0,0,1-62.4,30.6c-2.4.5-2.2,1.9-2.2,3.6,0,8.3-.1,16.7.1,25.1.1,4.5-1.4,7.7-5.5,9.6Zm-6.5-65.8c3.9,4.3,7.1,7.7,10.1,11.3,1.5,1.8,2.9,2.1,5.2,1.6A124.5,124.5,0,0,0,461,414.7c2.5-2.2,5.1-4,8.4-2.9a16.7,16.7,0,0,1,5.5,3.7A127.6,127.6,0,0,0,538.2,446a4.5,4.5,0,0,0,3.5-.9c2.9-3.9,5.5-8,8.7-12.7-34.5-2.7-60.4-20.3-82.8-45C445.6,411.6,420.5,429.1,386.5,432.2Zm43-30.7c1.9-1.4,3.3-2.2,4.5-3.3l27.1-24.7c4.8-4.4,8.2-4.4,13,0,6.8,6.4,13.6,12.9,20.5,19.2,3.3,3,7,5.7,11.2,9.1a62.6,62.6,0,0,0,1.3-7.5c.4-12.2-4.6-21.8-14.4-28.8s-17-11.8-25.1-17.3c-8.2,5.6-16.8,11.4-25.3,17.5a29.6,29.6,0,0,0-6.8,6.4C428.7,380.6,426.3,390.1,429.5,401.5Zm3.3-174c0-16.2.2-32-.1-47.9-.2-6.3-6.2-11.7-12.6-12.4-9.7-1.1-17,5.5-17.1,15.7q-.2,21.2,0,42.3a21.5,21.5,0,0,0,.2,2.3Zm90,0c0-16.1.2-32-.1-47.8-.2-6.5-6.4-11.9-12.9-12.5-9.5-1-16.7,5.6-16.8,15.6-.1,14,0,28,0,41.9,0,.9.1,1.7.2,2.8Zm-45.1-54V141.1a6.1,6.1,0,0,0-.5-1.8A15,15,0,0,0,448,144c-.2,7.7,0,15.5,0,23.2v6.3ZM416,409c-4.5-12.6-16.8-20.4-26.9-17.5s-15.5,15.5-13,27.2C389.7,417,403.2,415.2,416,409Zm102.9-.2c11.9,5.7,24.1,8.2,36.8,9,.7.1,1.9-.9,2.3-1.7,3.5-7.3.2-13.4-3.9-19s-9.9-7.4-16.7-5.6C528.4,393.9,523,400.3,518.9,408.8ZM477.8,189H448.2v19.2h29.6Zm-74.7,73.2h29.6V243.1H403.1ZM493.2,243v19.3h29.6V243Z"/><path class="cls-1" d="M582.9,270.7a7.4,7.4,0,0,1-7.4,7.4,7.7,7.7,0,0,1-7.5-7.4,7.5,7.5,0,0,1,7.7-7.5A7.2,7.2,0,0,1,582.9,270.7Z"/><path class="cls-1" d="M431.6,481.7a7.3,7.3,0,0,1-7.1-7.6,7.4,7.4,0,0,1,7.6-7.2,7.5,7.5,0,0,1,7.3,7.9A7.3,7.3,0,0,1,431.6,481.7Z"/><path class="cls-1" d="M503,481.7a7.3,7.3,0,0,1-7.2-7.6,7.4,7.4,0,0,1,7.5-7.2,7.5,7.5,0,0,1,7.4,7.8A7.3,7.3,0,0,1,503,481.7Z"/><path class="cls-1" d="M475,457.3a7.4,7.4,0,1,1-14.8-.1,7.3,7.3,0,0,1,7.4-7.3A7.4,7.4,0,0,1,475,457.3Z"/><path class="cls-1" d="M214.5,498c-4.1-1.9-5.6-5.1-5.5-9.6.2-8.4.1-16.8.1-25.1,0-1.7.2-3.1-2.2-3.6a140.1,140.1,0,0,1-62.4-30.6c-2.8,2.1-5.5,4.3-8.3,6.3a139.9,139.9,0,0,1-58.6,25.1c-2.3.4-3.1,1.2-3.1,3.6.1,8.1-.1,16.2.1,24.3.1,4.5-1.4,7.8-5.6,9.6H64.5c-4-2.5-5.1-6.2-5-10.8.2-9,.2-18-.1-27a13.6,13.6,0,0,0-2.4-7.5c-17.5-25-27.3-52.6-27.8-83.2-.4-21.3-.1-42.5-.2-63.8a16.2,16.2,0,0,1,.1-2.2,7.2,7.2,0,0,1,6.7-6.5,7.1,7.1,0,0,1,7.8,5.4,20.3,20.3,0,0,1,.4,4.9c.1,22.1.1,44.2.3,66.3,0,4.6.9,9.1,1.4,14.2,13.9-14.4,28.8-15.2,44.7-5.6l.5-.3a7.8,7.8,0,0,0,.5-1.4c3.4-12.8,11.2-22.5,22.4-29.4,9.3-5.6,18.1-11.8,25-20.6a6.9,6.9,0,0,1,11.3.1c6.8,8.6,15.4,14.9,24.7,20.4a49,49,0,0,1,21.6,26c.6,1.8,1.1,3.6,1.7,5.6,9.9-6.2,20-8.9,31.1-4.7s17.2,13,20.8,24c5.1-6.5,12.3-22.3,12.5-27.3l-14.1-3.3c-4.7-1.2-7.1-5-6-9.3s4.8-6.2,9.4-5.2l15.3,3.3,3.9-19.2c-5.2-1.2-9.9-2.2-14.6-3.4s-7.4-5-6.4-9.1,5-6.5,9.9-5.5l14.1,3.2c1.4-6.7,2.8-13,4.1-19.3a15.3,15.3,0,0,0,.3-3c.3-8.4-5.8-15.2-14-15.4s-11.5,3.4-14.4,9.5L224.2,352c-1.5,3-3.2,5.6-7,5.9s-8.1-2.8-8.1-8.4c-.1-22.5,0-45,0-67.5v-4.3H179c0,3.5.1,6.7,0,10s.2,8.7-.1,13.1a6.9,6.9,0,0,1-6.6,6.9,7.3,7.3,0,0,1-7.9-5,19.1,19.1,0,0,1-.3-4.8c-.1-23.2-.1-46.5-.1-69.7v-4.4H134v73.4a22.6,22.6,0,0,1-.2,4.5,7.3,7.3,0,0,1-7.8,6.1,7.1,7.1,0,0,1-6.9-7c-.1-6.4,0-12.8-.1-19.2v-3.9H89V282c0,5.9.1,11.7,0,17.6-.1,4.3-2.1,7.1-5.5,8-5.1,1.3-9.4-2.1-9.4-7.8-.1-10.3-.1-20.7-.1-31.1V210.2c.1-5-1.2-9.4-5.1-12.8a14.2,14.2,0,0,0-15.7-2.6c-5.5,2.3-8.9,6.6-9,12.7-.3,9.4-.1,19-.2,28.4-.1,5.1-3.3,8.5-7.7,8.4s-7.2-3.3-7.2-8.3c-.1-9.5-.3-19,0-28.5a29.7,29.7,0,0,1,35.5-28.3,88.8,88.8,0,0,1,9.3,2.8c.5-11.3,5.2-20.1,14.9-25.8s19.7-5.4,30.3-.4c0-4.6-.2-8.7,0-12.8.7-13,7.3-21.9,19.2-27,2.1-.9,4.3-1.3,6.4-2h9a3.3,3.3,0,0,0,1,.6c15.9,4.2,24.3,15,24.3,31.5.1,3,0,6.1,0,9.3,11.3-3.4,15.7-4,21-2.8,14.6,3.1,24,15.2,24,31q.1,63.9.1,127.8v4.2c4.9-8.5,8.8-17.1,13.1-25.6a29.5,29.5,0,0,1,36.4-14.9c14.3,5,22.2,19.2,19.2,34.3s-6.5,30.6-9.3,45.9c-4.5,24.5-13.1,47.2-29,66.6-8.8,10.7-18.3,20.8-27.6,31.1a9.6,9.6,0,0,0-2.9,7.3c.2,9-.1,18,.1,27,.1,4.6-1,8.2-5.1,10.7ZM144.4,387.4c-22.4,24.7-48.3,42.3-82.8,45,3.2,4.7,5.8,8.8,8.7,12.7a4.5,4.5,0,0,0,3.5.9,127.6,127.6,0,0,0,63.3-30.5,16.7,16.7,0,0,1,5.5-3.7c3.3-1.1,5.9.7,8.4,2.9a124.5,124.5,0,0,0,59.2,30.4c2.3.5,3.7.2,5.2-1.6,3-3.6,6.2-7,10.1-11.3C191.5,429.1,166.4,411.6,144.4,387.4Zm32.1-15.3a29.6,29.6,0,0,0-6.8-6.4c-8.5-6.1-17.1-11.9-25.3-17.5-8.1,5.5-16.7,11.3-25.1,17.3s-14.8,16.6-14.4,28.8a62.6,62.6,0,0,0,1.3,7.5c4.2-3.4,7.9-6.1,11.2-9.1,6.9-6.3,13.7-12.8,20.5-19.2,4.8-4.4,8.2-4.4,13,0L178,398.2c1.2,1.1,2.6,1.9,4.5,3.3C185.7,390.1,183.3,380.6,176.5,372.1Zm32.3-144.6a21.5,21.5,0,0,0,.2-2.3q.1-21.1,0-42.3c-.1-10.2-7.4-16.8-17.1-15.7-6.4.7-12.4,6.1-12.6,12.4-.3,15.9-.1,31.7-.1,47.9Zm-90,0c.1-1.1.2-1.9.2-2.8,0-13.9.1-27.9,0-41.9-.1-10-7.3-16.6-16.8-15.6-6.5.6-12.7,6-12.9,12.5-.3,15.8-.1,31.7-.1,47.8Zm45.2-54v-6.3c0-7.7.2-15.5,0-23.2a15,15,0,0,0-29.2-4.7,6.1,6.1,0,0,0-.5,1.8v32.4Zm71.9,245.2c2.5-11.7-3.7-24.4-13-27.2S200.5,396.4,196,409C208.8,415.2,222.3,417,235.9,418.7ZM74.6,391.5c-6.8-1.8-12.6.2-16.7,5.6s-7.4,11.7-3.9,19c.4.8,1.6,1.8,2.3,1.7,12.7-.8,24.9-3.3,36.8-9C89,400.3,83.6,393.9,74.6,391.5Zm59.6-183.3h29.6V189H134.2Zm74.7,34.9H179.3v19.1h29.6ZM89.2,243v19.3h29.6V243Z"/><path class="cls-1" d="M29.1,270.7a7.4,7.4,0,0,0,7.4,7.4,7.7,7.7,0,0,0,7.5-7.4,7.5,7.5,0,0,0-7.7-7.5A7.2,7.2,0,0,0,29.1,270.7Z"/><path class="cls-1" d="M180.4,481.7a7.3,7.3,0,0,0,7.1-7.6,7.4,7.4,0,0,0-7.6-7.2,7.5,7.5,0,0,0-7.3,7.9A7.3,7.3,0,0,0,180.4,481.7Z"/><path class="cls-1" d="M109,481.7a7.3,7.3,0,0,0,7.2-7.6,7.4,7.4,0,0,0-7.5-7.2,7.5,7.5,0,0,0-7.4,7.8A7.3,7.3,0,0,0,109,481.7Z"/><path class="cls-1" d="M137,457.3a7.4,7.4,0,1,0,14.8-.1,7.3,7.3,0,0,0-7.4-7.3A7.4,7.4,0,0,0,137,457.3Z"/></svg>