<svg id="Layer_1" data-name="Layer 1" xmlns="http://www.w3.org/2000/svg" viewBox="0 0 612 612"><defs><style>.cls-1{fill:#fff;}</style></defs><path class="cls-1" d="M101,364.5c1.1-7.5,1.9-15,3.3-22.4,5.6-29.7,14.3-58.4,31-83.9,12.4-18.9,28.5-33.7,50.2-41.5a12.8,12.8,0,0,0,4.6-3.5,28.1,28.1,0,0,1,40.9-.3,21,21,0,0,0,6.8,4.6c15.9,6.1,28.9,16.2,39.7,29.2,17.5,20.9,26.8,45.7,34.2,71.4a244.2,244.2,0,0,1,8.6,50.2,19.1,19.1,0,0,1-12.6,19.3c-4.8,1.8-9.8,3.2-15,4.9l8.7,9.9c3.9-4.7,7.5-9.6,11.8-13.8,5.8-5.8,13.2-8.9,21-11.1,13.1-3.8,26.3-7.5,39.4-11.4a7,7,0,0,0,3.5-3.5c.9-2.1-.4-3.5-2.5-4.7a58.5,58.5,0,0,1-27.8-32.1c-.8-2.2-1.8-3-4.2-3-10.5-.3-16.2-6.1-16.3-16.6-.1-6.6-.3-13.1,4.7-18.8,1.4-1.5.6-5.1.5-7.7-.3-13.1,2.6-25.4,9.9-36.4,11.9-18.1,28.8-28.1,50.5-28.8,12.5-.4,25-1.3,37.3,2.1,25.5,6.9,44.5,30.5,45.6,56.8.1,2.4.2,4.8.1,7.2a19.4,19.4,0,0,0,2.7,10.3c4.2,7.9,4,16.5.3,24.6-2.6,5.4-7.9,7.4-13.7,7.3-2.5-.1-3.7.7-4.6,3.1-5.3,14.5-15,25.2-28.5,32.6-1.3.7-2.9,2.9-2.6,3.9a6.3,6.3,0,0,0,3.9,3.6c14.9,4.5,30.2,8.2,45,13.4,20.2,7,32.1,24.4,32.3,45.7s.1,45,.1,67.5c0,5.7-2.3,7.6-8.7,7.6H122.2c-8,0-9.5-1.5-9.5-9.5,0-19.4.2-38.9-.1-58.3-.3-15.5,3.9-28.8,16.4-39.7-11.4-4.1-24.4-5.2-28-19.4ZM280.2,487.9h16.3c0-21.6.7-42.9-.3-64.1-.6-13.8-9.2-23.4-22.3-27.8a342.7,342.7,0,0,0-35.5-10.4c-8.4-1.9-15-4.6-16.5-13.6H198.5c-1.3,6.3-4.7,10.7-11.2,12.5-13.1,3.6-26.1,7.3-39.1,11.2s-23,15.7-23.3,30c-.4,20.4-.1,40.8-.1,61.1a3.4,3.4,0,0,0,.4,1.2h15.9c0-5.5-.1-10.7,0-16s2.5-7.8,6.2-7.7,5.7,2.9,5.7,7.7.1,10.5.1,15.9H267.8a4.4,4.4,0,0,0,.3-1.4V433a5.4,5.4,0,0,0-1-3.3c-6.5-7.8-14.8-11.4-24.9-10.6-8.4.7-14.6,5.1-20.3,10.9s-15.7,6.5-22.4.2l-4.4-4.2c-10.5-9.8-28.6-9.2-38.6,1.2-2.6,2.6-3.8,5.2-3.5,8.8a43.3,43.3,0,0,1-.1,7.2c-.3,3-2.5,5.2-5.3,4.9s-5.4-2.1-5.7-3.7c-1.3-7.8-2.3-15.9,3.4-22.8,15.2-18.8,43.6-19.7,60.6-2,4.2,4.5,5.3,4.5,9.6,0a40.4,40.4,0,0,1,58.2-.7c4.4,4.4,6.7,9.3,6.5,15.7-.2,10.2,0,20.4,0,30.7Zm182.5.2V434.3a21.3,21.3,0,0,1,.2-4.4c.6-3.3,2.7-5.2,6.1-5.1s5.1,2.2,5.6,5.3a21.7,21.7,0,0,1,.1,3.6v54.2h23c0-21.9.2-43.4-.1-65-.1-8.3-3.5-15.7-9-22.1-10.5-12.3-26.1-12.7-40.8-18.2,3.1,5.5,5.5,10,8.1,14.3s2.3,7.6-.2,11.5q-23.4,36-46.6,72c-3.5,5.5-8.1,5.6-11.6.2-15.6-24.2-31.1-48.3-46.8-72.4-2.4-3.8-2.5-7.3-.2-11.2s5.1-8.9,8.1-14.2l-21.1,6.3c-19,5.6-28.8,18.7-28.8,38.5s0,37.3,0,55.9v4.4H331c0-6-.2-11.7,0-17.4a6.1,6.1,0,0,1,6-6.2c3.2.1,5.6,2.5,5.9,6,.1,1.6,0,3.2,0,4.8v13ZM451.3,285.2l-2.4.5c-10.5,3.2-21.2,4.2-31.9,2.1s-19.6-4.8-29.3-7.5-17.6-5-26.9-4.6c-2.9.1-4.4.9-4.7,3.9-1.6,13.5-3,27.2,1.4,40.3,6.5,19.2,20.4,30.7,40.5,33s34.7-5.7,45.7-21.7C453.3,317.2,451.6,301.4,451.3,285.2Zm11.3-8c1.2-22.1-15.1-44.2-37.1-48.9-10.5-2.2-21.7-2.1-32.5-1.8-21.4.6-36.6,11.4-45.5,30.8-3.3,7.2-4.4,14.8-3.3,20.1.5-1.7.9-3.1,1.2-4.5,1-4.9,3.6-8.3,9-8.4s12.4-1.2,18.2,0c12.2,2.5,24.1,6.3,36.2,9.5,14.2,3.7,28.3,4.4,42-2.1C457.2,268.9,459.7,269.9,462.6,277.2ZM227.3,305.9c-8.2-3.2-17-5.7-24.9-9.8s-15.1-9.9-22.5-15c-3.3-2.4-4.4-2.1-5.5,1.9s-2,7.1-2.9,10.7-2.3,7.9-6.2,10.2c-.7.3-1.1,1.5-1.2,2.3-1,15.4,2.5,29.2,13.7,40.6a46.5,46.5,0,0,0,54.1,8.6c17.9-9.1,28.5-30.4,24.8-49.9h-18c.2,1.3.4,2.3.5,3.4s.1,4,0,6c-.1,3.9-2.3,6.3-5.6,6.5s-6-2.2-6.3-6.3S227.3,308.6,227.3,305.9Zm38.8-12.5c-.3-26.7-23.4-55-57.6-53.7s-54.2,32.8-53,53.2c2.7,1.1,4,.1,4.6-2.8s1.6-8.2,3.3-11.8,3.9-6.8,6.9-8.8c5.4-3.7,11.1-2.5,16.2,1.5,8.6,7,17.6,13.3,27.8,17.7C231.1,296.1,248.6,292.2,266.1,293.4Zm-26.5-62.1-.9.9c1.2,1.1,2.1,2.4,3.4,3.1,19.7,11.1,31.7,27.5,35.4,49.8.9,5.4.5,10.9,5.5,15.1,1.7,1.3,1.9,4.8,2.3,7.3a48.2,48.2,0,0,1,.1,7.6c-.1,10.2-5.4,15.8-15.6,16.1-2.6.1-3.7,1-4.5,3.3-5.5,14.4-15.3,25-28.9,32.1-1.1.6-2.4,2.3-2.2,3.1a4.6,4.6,0,0,0,2.8,3.1c12.9,3.8,25.8,7.4,38.7,11a7.4,7.4,0,0,0,3.9.2c7.7-2.4,15.4-4.8,23.1-7.4,4.3-1.4,6.1-4.1,5.5-8.5-1.6-11.8-2.8-23.8-5.4-35.4-5.7-26-14.4-50.9-30.2-72.8C263.9,247.8,253.2,237.9,239.6,231.3Zm-57,1.1-.8-1-2.5,1.2c-19.7,10.6-32.7,27.3-42.4,46.8-13.6,27.7-21.2,57-23.8,87.6-.4,5.8,1.2,8.3,6.8,10.1s13.9,4.5,20.9,6.5a10.6,10.6,0,0,0,5.3.1l35.6-10.3c2.1-.6,4.2-.5,4.7-3.3s-1.5-3.6-3.4-4.6a56.5,56.5,0,0,1-26.6-30.1c-1.2-3-2.5-4.2-5.9-4.3-8.8-.1-14.3-5.9-14.5-14.7-.1-2.9,0-5.8,0-8.8s1.8-7.6,4.6-10.7a9.4,9.4,0,0,0,2.4-5c2.1-25.6,14.5-44.5,36.9-56.9A13.3,13.3,0,0,0,182.6,232.4ZM369.5,387.9c-2.9,5.2-5.4,9.6-7.8,14.1-.2.4.2,1.3.5,1.8l21.6,33.4.6-.2C379.5,421,374.7,405,369.5,387.9Zm67.5.1c-5,16.7-9.7,32.2-14.5,47.7,7.9-10.3,14.8-21,21.6-31.7a3.6,3.6,0,0,0,.1-3.2C442.1,396.8,439.8,393,437,388ZM226.1,228.5c-.3-6.1-7.4-12.1-15.1-12.3s-15.1,4.8-15.9,12.3ZM403.2,456.1c7.4-11.6,3.3-24.1,1.8-36.4-.1-.6-1.2-1.3-1.9-1.5a2.1,2.1,0,0,0-1.5,1.4,52.5,52.5,0,0,0-.9,5.5C398.7,435.8,397.4,446.4,403.2,456.1Zm12.9-91.5H389.3c-.5,1.6-1.2,3.7-1.9,6.2a50.9,50.9,0,0,0,30.9.2C417.5,368.6,416.8,366.5,416.1,364.6Zm-31.2,32.9L398,385.4l-17.9-3.7C381.8,387.1,383.2,391.9,384.9,397.5Zm36.7,0c1.6-5.5,3.1-10.4,4.8-15.8l-17.9,3.8Zm42-86.9c4.8-.3,4.9-.7,4.6-10.4-.1-2.9-1-4.8-4.6-4.2Zm-120.8,0V295.9c-5.3-.2-4.4,3.4-4.5,6.3C338.3,310.3,338.3,310.3,342.8,310.6Zm60.4,85.7c-1.4,3.6-7.8,4.1-3.7,8.5,1.2,1.3,6.2,1.4,7.4.1C411,400.6,404.9,399.8,403.2,396.3ZM152,319.4V305.5c-3.9-.6-4.4,1.8-3.9,4.3S145.4,318,152,319.4Zm117.3-14v13.5c2.8.7,3.9-.6,4.1-3.2C274.1,307.7,273.6,306.1,269.3,305.4Z"/><path class="cls-1" d="M278.9,112.2c8.7.3,16.8,2.5,23.7,8,2,1.6,3.4,1.6,5.5.1,12.1-9,25.5-10.7,39.1-4.6s22.4,18.3,23.3,34c.7,13.8-4.5,25.8-13,36.4-13.1,16.4-30.4,27.1-49.4,35.4a8.3,8.3,0,0,1-5.4,0c-21-9.4-40.4-21.1-53.3-40.9-8.3-12.8-11.9-26.6-7.1-41.7S262.9,112.1,278.9,112.2Zm-26.8,38a42.9,42.9,0,0,0,7.8,24.7c11.1,16,26.9,25.8,44,34a5.2,5.2,0,0,0,4-.4c9.6-5.9,19.6-11.3,28.5-18.1,11.8-9.1,20.6-20.7,22-36.4a26.9,26.9,0,0,0-46.1-21.6c-5.9,6-7.9,6-13.7.2-8.5-8.4-18.4-10.4-29.4-6.3S252.2,140.4,252.1,150.2Z"/><path class="cls-1" d="M342.9,436.7c0,2,.1,4-.1,6a5.9,5.9,0,0,1-6.1,5.6c-3.3-.3-5.4-2.3-5.6-5.6a84.2,84.2,0,0,1,0-12.3c.2-3.4,2.3-5.3,5.6-5.6a5.8,5.8,0,0,1,6.1,5.6C343,432.5,342.9,434.6,342.9,436.7Z"/><path class="cls-1" d="M404.8,344.8c-8.4-.2-13.9-2.2-18.3-7.1-2.6-3-2.7-6.4-.2-8.8s5.5-2.2,8.5.3c5.7,4.9,11.1,4.9,17-.1,3-2.5,6.1-2.5,8.5-.1s2.3,5.7-.2,8.5A19.9,19.9,0,0,1,404.8,344.8Z"/><path class="cls-1" d="M385.9,303.4a19.2,19.2,0,0,1,0,2.4c-.3,4.3-2.7,6.9-6.3,6.8s-5.5-2.7-5.6-6.8a52.3,52.3,0,0,1,0-5.6c.2-3.9,2.3-6.2,5.7-6.3s5.7,2.2,6.2,6c.1,1.1,0,2.3,0,3.5Z"/><path class="cls-1" d="M432.5,303.1c0,1.1.1,2.1,0,3.2-.2,3.8-2.5,6.3-5.8,6.2s-5.6-2.2-6-5.6a38.6,38.6,0,0,1,.1-7.6c.4-3.5,2.9-5.7,6.1-5.4s5.4,2.5,5.6,6c.1,1.1,0,2.2,0,3.2Z"/><path class="cls-1" d="M210.7,352.6c-6.5,0-12.2-2-16.6-7.1-2.5-2.9-2.5-6.1,0-8.5s5.5-2.3,8.5.2c5.6,4.8,10.6,4.8,16.3-.1,2.8-2.4,5.8-2.5,8.2-.3s2.5,5.7.2,8.6C223.7,349.9,217.5,352.6,210.7,352.6Z"/><path class="cls-1" d="M181.9,311.9c.1-1.2.1-2.4.3-3.6.5-3.3,2.4-5.3,5.8-5.3s5.6,2.2,5.9,5.7a37.5,37.5,0,0,1,0,6.7c-.2,3.5-2,5.7-5.6,6s-5.8-2.1-6.2-5.9c-.1-1.2,0-2.4,0-3.6Z"/></svg>